<?xml version="1.0" standalone="no"?>
<!DOCTYPE svg PUBLIC "-//W3C//DTD SVG 20010904//EN"
 "http://www.w3.org/TR/2001/REC-SVG-20010904/DTD/svg10.dtd">
<svg version="1.0" xmlns="http://www.w3.org/2000/svg"
 width="750.000000pt" height="500.000000pt" viewBox="0 0 750.000000 500.000000"
 preserveAspectRatio="xMidYMid meet">

<g transform="translate(0.000000,500.000000) scale(0.100000,-0.100000)"
fill="#000000" stroke="none">
<path d="M0 3221 l0 -1779 184 -179 c101 -99 248 -236 326 -304 134 -118 330
-272 337 -265 2 1 -4 23 -12 47 -9 24 -12 39 -7 34 5 -6 15 -27 22 -48 6 -21
22 -47 33 -59 21 -20 20 -20 -18 2 -136 78 -373 280 -657 558 l-208 204 0
-219 0 -219 153 -150 c83 -82 186 -181 227 -218 72 -65 71 -65 -19 10 -52 44
-154 138 -228 209 l-133 130 0 -55 c0 -31 6 -62 12 -69 10 -11 10 -13 1 -7
-10 6 -13 -81 -13 -418 l0 -426 807 0 c767 0 805 1 790 18 -14 15 -14 18 1 32
14 13 15 12 9 -4 -5 -14 -3 -17 8 -12 9 3 15 0 15 -9 0 -21 32 -26 130 -23
l85 3 -66 37 c-193 110 -320 138 -636 138 -258 0 -326 10 -438 63 -66 32 -226
144 -242 170 -8 13 -11 16 82 -55 76 -58 170 -108 204 -108 19 0 22 -3 12 -9
-10 -6 1 -12 35 -19 27 -6 52 -8 58 -5 5 3 43 5 85 4 50 -1 85 3 104 13 15 8
27 11 27 5 0 -5 81 -9 198 -9 211 -1 278 -9 300 -41 7 -11 44 -35 81 -53 37
-19 107 -57 156 -85 49 -28 93 -50 98 -48 6 2 -40 36 -102 76 -61 40 -111 74
-111 77 0 8 125 -63 194 -110 l67 -46 1304 0 1303 0 45 73 c54 85 223 263 231
242 3 -9 0 -12 -8 -9 -7 3 -16 -2 -19 -10 -7 -16 7 -31 21 -22 5 3 9 -1 9 -9
0 -18 -9 -19 -26 -3 -10 11 -12 7 -8 -19 3 -19 0 -34 -6 -37 -8 -3 -8 -5 1 -5
7 -1 11 -5 8 -9 -2 -4 4 -8 14 -8 10 0 16 5 12 11 -11 17 -11 35 0 42 7 3 8 1
4 -5 -4 -7 -2 -12 4 -12 6 0 8 -4 5 -10 -3 -5 -1 -10 5 -10 7 0 9 7 6 16 -5
13 -2 15 16 11 21 -6 22 -5 5 8 -12 8 -14 15 -8 20 6 3 11 2 11 -3 0 -4 10
-19 23 -32 12 -14 22 -28 22 -32 0 -4 9 -14 20 -23 19 -14 19 -16 2 -29 -16
-12 -16 -14 -2 -20 9 -3 14 -2 11 3 -3 5 1 12 10 15 10 4 13 2 8 -6 -5 -8 -2
-9 9 -5 10 4 17 1 17 -6 1 -7 6 -5 14 5 7 10 17 14 22 10 4 -4 2 2 -6 13 -8
11 -11 17 -6 13 4 -4 19 -3 32 2 26 10 31 2 12 -19 -11 -11 -10 -13 2 -9 8 3
21 15 28 29 l13 24 -4 -27 c-2 -15 -1 -25 4 -23 4 3 10 1 13 -4 3 -5 -1 -11
-9 -15 -8 -3 -15 -11 -15 -17 0 -9 3 -9 14 0 11 9 15 9 19 -1 4 -9 6 -9 6 2 1
9 15 21 32 27 20 8 28 16 23 24 -5 8 -3 9 5 5 7 -5 10 -14 7 -22 -3 -8 -3 -14
0 -14 2 0 9 10 14 23 l9 22 0 -24 c1 -24 1 -24 16 -5 11 15 15 16 15 4 1 -8 8
1 15 20 10 25 14 29 15 15 l1 -20 9 20 9 20 1 -20 c1 -14 5 -9 14 15 12 33 13
33 20 13 8 -26 26 -31 26 -8 0 8 6 12 14 9 8 -3 17 2 20 14 4 10 22 28 41 38
19 10 35 22 35 27 0 4 4 6 8 3 5 -3 16 6 26 20 11 13 23 24 28 24 6 0 23 9 39
21 16 11 29 17 29 13 0 -4 8 0 18 9 33 30 152 61 152 39 0 -5 7 -13 16 -16 14
-5 15 -4 4 9 -10 13 -9 15 8 15 12 0 26 -8 31 -17 6 -10 11 -14 11 -9 0 6 6 2
13 -6 19 -26 74 -35 146 -25 68 9 206 50 227 68 7 6 18 8 23 5 9 -6 48 10 61
25 3 3 20 11 38 18 18 8 38 21 45 31 7 9 19 19 27 23 8 4 33 18 55 32 22 13
50 28 61 34 12 5 32 25 45 43 13 18 29 39 36 46 7 7 13 19 13 25 0 7 9 20 20
30 11 9 20 24 20 32 0 8 6 15 13 15 8 0 20 11 27 25 19 36 73 66 123 69 47 3
67 -2 67 -16 0 -5 -4 -7 -8 -4 -4 3 -17 -11 -27 -30 -15 -27 -16 -40 -8 -53 7
-11 8 -23 1 -34 -6 -12 -5 -17 5 -17 8 0 20 -7 27 -15 7 -9 19 -14 27 -11 7 3
13 1 13 -5 0 -15 74 -89 89 -89 6 0 17 -11 23 -25 7 -16 14 -21 18 -14 4 6 10
-3 13 -20 6 -28 9 -30 37 -25 33 7 43 -10 10 -19 -11 -3 -20 -11 -20 -18 0
-10 3 -10 12 -1 13 13 58 16 58 4 0 -4 16 -8 35 -8 25 0 40 -6 51 -22 15 -22
51 -32 38 -10 -5 7 -3 8 5 3 7 -4 11 -16 8 -26 -6 -22 21 -27 29 -5 3 8 13 12
25 9 15 -4 19 -11 15 -28 -7 -27 3 -39 20 -24 9 7 21 6 43 -6 17 -8 31 -12 32
-8 0 5 4 -1 9 -12 6 -13 9 16 9 83 1 56 -2 102 -6 102 -5 0 -25 16 -45 35 -30
27 -38 41 -38 70 0 22 -6 38 -15 41 -8 4 -15 12 -15 20 0 8 -4 14 -10 14 -5 0
-10 9 -10 19 0 14 -5 18 -20 14 -16 -4 -19 -2 -14 11 3 9 10 14 14 11 13 -8
21 26 10 40 -7 8 -4 17 10 30 11 10 20 13 20 8 0 -6 7 -14 16 -17 13 -5 14 -4
6 7 -9 10 -8 14 3 14 8 0 17 -7 20 -15 4 -11 8 -12 19 -3 10 9 16 9 21 1 5 -8
11 -8 21 1 12 10 14 312 14 2085 l0 2074 -2525 0 c-1785 0 -2526 -4 -2531 -11
-3 -6 -6 -60 -5 -120 2 -108 2 -108 -23 -115 -14 -3 -40 -1 -57 5 -44 15 -48
14 -59 -14 -6 -16 -6 -35 1 -52 6 -16 13 -93 15 -173 3 -80 7 -151 9 -158 4
-10 -3 -12 -28 -7 -17 4 -35 9 -40 12 -20 12 -41 76 -48 153 -4 47 -13 137
-18 200 -7 75 -20 144 -38 198 l-28 82 -592 0 c-411 0 -593 -3 -593 -11 0 -5
-5 -7 -10 -4 -7 4 -9 -2 -5 -18 4 -15 1 -30 -8 -38 -23 -23 -35 -52 -42 -98
-3 -23 -10 -52 -14 -64 -8 -20 -10 -17 -21 20 -9 29 -24 50 -46 65 -19 13 -34
31 -34 41 0 22 5 22 31 -5 20 -21 21 -21 14 -3 -5 11 -7 41 -6 68 l2 47 -400
0 -401 0 0 -1779z m975 1697 c18 -45 29 -140 21 -184 -7 -34 -8 -35 -26 -19
-14 13 -19 13 -23 3 -3 -7 -6 14 -6 48 -1 66 9 184 16 184 2 0 10 -15 18 -32z
m-202 -128 c15 -16 27 -38 27 -47 -1 -17 -1 -17 -14 -1 -12 16 -14 16 -33 -4
-25 -24 -43 -17 -43 18 0 28 16 64 29 64 4 0 20 -13 34 -30z m90 -75 c-7 -21
-13 -19 -13 6 0 11 4 18 10 14 5 -3 7 -12 3 -20z m3852 -60 c366 -43 718 -136
1054 -277 913 -385 1466 -953 1637 -1683 26 -111 28 -135 29 -330 0 -163 -4
-228 -17 -290 -54 -250 -178 -500 -357 -719 -108 -134 -342 -355 -475 -450
-110 -78 -302 -184 -421 -231 -49 -19 -99 -39 -110 -44 -11 -5 -72 -26 -135
-46 -560 -180 -1263 -266 -1845 -225 -473 33 -980 148 -1350 306 -476 203
-851 439 -1110 699 -285 287 -441 568 -516 925 -32 150 -32 402 -1 546 147
685 704 1224 1617 1566 339 128 806 231 1167 258 78 5 163 12 188 14 96 8 522
-4 645 -19z m-4360 -55 c-13 -21 7 -30 23 -10 16 19 21 20 77 9 68 -12 121
-37 109 -49 -5 -5 -25 -11 -46 -15 -31 -6 -37 -4 -43 14 -8 25 -35 28 -35 4
-1 -17 -2 -17 -14 0 -14 18 -33 7 -21 -12 7 -12 -2 -18 -47 -26 -35 -7 -36 -6
-31 17 3 12 11 29 17 37 9 12 6 13 -16 7 -52 -12 -28 13 30 33 2 1 0 -3 -3 -9z
m474 -37 c1 -7 -6 -13 -14 -13 -16 0 -19 17 -8 46 6 16 7 16 14 -2 4 -10 8
-25 8 -31z m24 -49 c3 -3 3 -13 0 -21 -5 -12 -7 -12 -14 -1 -15 23 -4 40 14
22z m-18 -93 c-8 -14 -65 8 -65 25 0 11 4 12 19 4 27 -14 31 -13 24 8 -4 11 0
10 11 -6 10 -12 15 -26 11 -31z m25 29 c0 -5 -4 -10 -10 -10 -5 0 -10 5 -10
10 0 6 5 10 10 10 6 0 10 -4 10 -10z m-776 -25 c-4 -8 -11 -15 -16 -15 -6 0
-5 6 2 15 7 8 14 15 16 15 2 0 1 -7 -2 -15z m814 -33 c13 11 15 10 9 -5 -4
-11 -3 -16 3 -12 15 9 23 -21 11 -42 -9 -16 -10 -15 -11 7 -1 24 -2 24 -10 4
-10 -25 -30 -41 -30 -25 0 6 -5 11 -11 11 -6 0 -8 -8 -4 -19 7 -22 -28 -33
-64 -19 -26 9 -19 28 10 28 10 0 19 5 19 11 0 5 -6 7 -12 3 -7 -4 5 12 27 35
30 31 41 38 43 26 3 -13 6 -14 20 -3z m82 -16 c0 -8 -4 -17 -9 -21 -12 -7 -24
12 -16 25 9 15 25 12 25 -4z m-760 -16 c0 -5 -5 -10 -11 -10 -5 0 -7 5 -4 10
3 6 8 10 11 10 2 0 4 -4 4 -10z m400 -50 c0 -5 -4 -10 -10 -10 -5 0 -10 5 -10
10 0 6 5 10 10 10 6 0 10 -4 10 -10z m-280 -30 c0 -5 -5 -10 -11 -10 -5 0 -7
5 -4 10 3 6 8 10 11 10 2 0 4 -4 4 -10z m490 -77 c0 -7 -4 -13 -10 -13 -5 0
-10 12 -10 28 0 21 2 24 10 12 5 -8 10 -21 10 -27z m-72 8 c3 -8 -1 -12 -9 -9
-7 2 -15 10 -17 17 -3 8 1 12 9 9 7 -2 15 -10 17 -17z m37 10 c3 -5 1 -12 -5
-16 -5 -3 -10 1 -10 9 0 18 6 21 15 7z m-248 -277 c-7 -7 -57 15 -57 25 0 5
14 3 31 -6 16 -8 28 -17 26 -19z m378 -82 c-19 -82 -43 -126 -39 -70 3 37 43
152 50 145 3 -2 -2 -36 -11 -75z m-330 28 c3 -6 -1 -7 -9 -4 -18 7 -21 14 -7
14 6 0 13 -4 16 -10z m-40 -32 c19 -13 36 -32 39 -43 4 -16 1 -15 -19 8 -27
31 -35 33 -35 11 0 -8 -5 -12 -11 -8 -7 4 -8 9 0 17 7 7 5 14 -7 23 -29 22 -4
15 33 -8z m85 -10 c5 -13 9 -17 9 -10 1 7 6 10 11 7 13 -8 13 -42 0 -50 -13
-8 -38 16 -33 32 2 6 -1 14 -6 18 -14 8 -14 25 -1 25 6 0 15 -10 20 -22z
m-250 8 c0 -3 -4 -8 -10 -11 -5 -3 -10 -1 -10 4 0 6 5 11 10 11 6 0 10 -2 10
-4z m410 -49 c0 -2 -12 -14 -27 -28 l-28 -24 24 28 c23 25 31 32 31 24z m-399
-56 c-7 -12 -16 -21 -21 -21 -15 0 -12 48 3 53 20 7 30 -9 18 -32z m469 29 c0
-5 -4 -10 -10 -10 -5 0 -10 5 -10 10 0 6 5 10 10 10 6 0 10 -4 10 -10z m-274
-48 c-14 -14 -29 -23 -32 -19 -9 9 16 58 27 51 4 -2 11 1 15 8 6 9 9 9 12 -1
2 -7 -7 -25 -22 -39z m-48 2 c-12 -26 -38 -45 -38 -27 0 10 44 63 48 58 2 -2
-2 -16 -10 -31z m343 -8 c14 8 11 -10 -5 -32 -8 -10 -18 -16 -22 -12 -4 4 -1
14 6 23 9 11 9 15 1 15 -7 0 -9 5 -5 12 6 9 9 9 12 0 2 -7 8 -10 13 -6z m-291
-21 c0 -2 -15 -12 -32 -20 l-33 -16 24 21 c22 19 41 26 41 15z m210 1 c0 -3
-4 -8 -10 -11 -5 -3 -10 -1 -10 4 0 6 5 11 10 11 6 0 10 -2 10 -4z m-60 -55
c0 -5 -7 -11 -14 -14 -10 -4 -13 -1 -9 9 6 15 23 19 23 5z m111 -34 c-10 -9
-11 -8 -5 6 3 10 9 15 12 12 3 -3 0 -11 -7 -18z m-151 -11 c0 -3 -4 -8 -10
-11 -5 -3 -10 -1 -10 4 0 6 5 11 10 11 6 0 10 -2 10 -4z m160 -46 c-7 -16 -16
-30 -21 -30 -5 0 -6 -6 -3 -14 5 -14 -35 -85 -49 -86 -5 0 -5 10 -1 22 6 21 6
21 -11 5 -52 -53 2 51 58 110 36 38 45 36 27 -7z m-310 15 c0 -2 -15 -12 -32
-20 l-33 -16 24 21 c22 19 41 26 41 15z m80 -100 c-21 -25 -49 -37 -66 -27
-14 8 -14 10 0 21 9 8 16 11 16 8 0 -3 12 0 27 8 32 17 41 12 23 -10z m50 17
c0 -4 -10 -13 -22 -21 -23 -14 -23 -14 -4 8 20 22 26 25 26 13z m186 -29 c-3
-21 -8 -79 -11 -130 -6 -96 -25 -184 -50 -233 -8 -16 -12 -36 -9 -44 4 -10 1
-16 -8 -16 -8 0 -34 -20 -58 -45 -24 -24 -46 -43 -48 -40 -2 2 -13 -5 -25 -16
-27 -24 -43 -24 -50 1 -3 13 0 20 9 20 8 0 14 -5 14 -11 0 -5 5 -7 10 -4 7 4
7 12 1 23 -7 13 -4 23 11 40 13 13 16 22 9 22 -7 0 6 18 29 40 37 36 41 43 32
68 -5 15 -15 26 -21 25 -24 -6 -9 15 33 47 40 29 86 74 86 83 0 2 -10 3 -22 3
-18 -1 -23 4 -22 24 0 14 4 36 8 49 6 18 5 22 -5 16 -8 -5 -2 3 14 18 15 14
27 30 27 35 0 11 39 62 47 62 2 0 2 -17 -1 -37z m-113 -66 c-11 -15 -28 -24
-46 -24 l-28 0 28 23 c15 13 36 23 46 24 17 0 17 -1 0 -23z m-243 -7 c0 -5 -5
-10 -11 -10 -5 0 -7 5 -4 10 3 6 8 10 11 10 2 0 4 -4 4 -10z m-310 -50 c0 -5
-7 -10 -15 -10 -8 0 -15 5 -15 10 0 6 7 10 15 10 8 0 15 -4 15 -10z m370 -70
c0 -5 -4 -10 -10 -10 -5 0 -10 5 -10 10 0 6 5 10 10 10 6 0 10 -4 10 -10z m0
-24 c0 -3 -4 -8 -10 -11 -5 -3 -10 -1 -10 4 0 6 5 11 10 11 6 0 10 -2 10 -4z
m-320 -26 c0 -5 -4 -10 -10 -10 -5 0 -10 5 -10 10 0 6 5 10 10 10 6 0 10 -4
10 -10z m240 -30 c0 -5 -7 -7 -15 -4 -8 4 -12 10 -9 15 6 11 24 2 24 -11z
m-160 0 c0 -5 -5 -10 -11 -10 -5 0 -7 5 -4 10 3 6 8 10 11 10 2 0 4 -4 4 -10z
m350 -28 c0 -4 -10 -13 -21 -20 -17 -11 -24 -11 -33 -1 -8 9 -8 10 0 6 7 -4
17 0 24 8 13 16 30 20 30 7z m260 -203 c0 -11 -4 -19 -10 -19 -5 0 -10 6 -10
14 0 8 -3 23 -7 33 -6 16 -5 16 10 4 9 -7 17 -22 17 -32z m-480 -928 c3 -1 -1
-5 -8 -9 -9 -7 -10 -16 -1 -43 13 -41 38 -97 39 -86 0 5 7 1 16 -7 8 -9 12
-20 9 -26 -4 -6 -1 -9 7 -8 9 2 13 -8 13 -32 0 -20 8 -42 18 -52 21 -22 23
-52 3 -45 -8 3 -17 -1 -20 -9 -4 -10 -2 -12 6 -8 7 4 8 3 4 -4 -11 -19 194
-694 221 -724 10 -12 11 -18 3 -23 -7 -4 -35 15 -68 48 -32 30 -127 118 -212
195 -85 77 -218 202 -295 277 -129 126 -125 122 55 -43 215 -197 483 -433 487
-429 1 2 -49 163 -111 358 -230 713 -221 680 -188 674 9 -2 19 -4 22 -4z m272
-188 c44 -46 124 -163 208 -303 124 -207 555 -1090 532 -1090 -4 0 -39 29 -79
64 -74 66 -172 138 -159 118 4 -7 4 -12 1 -12 -12 0 -368 241 -418 283 -31 26
-45 43 -38 50 6 6 37 -12 88 -50 43 -33 123 -90 178 -128 55 -37 111 -77 125
-89 l25 -21 -21 25 c-19 21 -50 131 -59 204 -1 12 -7 46 -13 76 -6 30 -14 80
-17 110 -4 30 -8 66 -10 80 -2 14 -6 50 -10 80 -12 97 -204 431 -332 578 -59
67 -60 86 -1 25z m-257 -193 c3 -5 1 -10 -4 -10 -6 0 -11 5 -11 10 0 6 2 10 4
10 3 0 8 -4 11 -10z m-56 -843 c64 -57 153 -131 199 -166 45 -35 82 -66 82
-69 0 -2 -6 0 -12 5 -165 123 -341 276 -508 442 l-125 124 124 -117 c68 -65
176 -163 240 -219z m6921 -7 c0 -5 -2 -10 -4 -10 -3 0 -8 5 -11 10 -3 6 -1 10
4 10 6 0 11 -4 11 -10z m-6358 -116 c2 -7 0 -12 -4 -13 -5 -1 -8 2 -9 7 -1 4
-6 16 -11 27 -9 18 -9 18 5 5 9 -8 17 -20 19 -26z m-116 -117 c3 -11 1 -24 -6
-31 -8 -8 -10 -7 -4 7 4 12 -1 27 -17 44 -24 25 -24 25 -1 12 12 -8 25 -22 28
-32z m-605 16 c13 -16 12 -17 -3 -4 -10 7 -18 15 -18 17 0 8 8 3 21 -13z m214
-43 c10 -11 16 -20 13 -20 -3 0 -13 9 -23 20 -10 11 -16 20 -13 20 3 0 13 -9
23 -20z m285 -6 c0 -2 -9 0 -20 6 -11 6 -20 13 -20 16 0 2 9 0 20 -6 11 -6 20
-13 20 -16z m601 -21 c13 -16 12 -17 -3 -4 -17 13 -22 21 -14 21 2 0 10 -8 17
-17z m-791 -50 c0 -7 -58 36 -66 49 -4 7 9 -1 29 -16 20 -16 37 -30 37 -33z
m-179 10 c13 -16 12 -17 -3 -4 -17 13 -22 21 -14 21 2 0 10 -8 17 -17z m359
-39 c0 -7 -5 -16 -12 -20 -7 -4 -8 -3 -4 5 4 6 0 24 -10 39 l-17 27 21 -19
c12 -11 22 -25 22 -32z m117 -26 c-15 -41 -67 -126 -67 -110 0 22 64 142 75
142 2 0 -2 -15 -8 -32z m638 -8 c3 -5 16 -10 29 -10 12 0 33 -11 46 -25 13
-14 18 -25 11 -25 -6 0 4 -13 22 -30 19 -16 40 -30 46 -30 7 0 9 -5 6 -10 -4
-6 -12 -8 -18 -4 -7 3 -1 -4 13 -16 18 -16 7 -13 -40 12 -52 27 -69 43 -87 77
-12 24 -30 49 -40 57 -10 7 -13 14 -6 14 6 0 15 -4 18 -10z m125 -75 c7 -8 8
-15 2 -15 -5 0 -15 7 -22 15 -7 8 -8 15 -2 15 5 0 15 -7 22 -15z m3335 -114
c3 -5 2 -12 -3 -15 -5 -3 -9 1 -9 9 0 17 3 19 12 6z m-3425 -81 c18 -12 2 -12
-25 0 -13 6 -15 9 -5 9 8 0 22 -4 30 -9z m-437 -30 c3 -11 1 -18 -4 -14 -5 3
-9 12 -9 20 0 20 7 17 13 -6z"/>
<path d="M4329 4196 c11 -14 10 -19 -10 -35 -13 -11 -37 -22 -53 -25 -30 -6
-66 -32 -66 -47 0 -4 7 -15 16 -23 13 -13 13 -16 1 -16 -8 0 -22 9 -32 20 -10
11 -22 17 -28 13 -6 -3 -7 -1 -3 5 4 7 13 12 21 12 8 0 16 4 19 8 6 10 -25 9
-41 -1 -7 -5 -34 -10 -60 -14 -40 -4 -56 -1 -95 21 -43 24 -50 25 -100 15 -29
-6 -73 -10 -97 -10 -24 0 -49 -3 -54 -6 -6 -4 -29 -6 -51 -6 -23 0 -52 -4 -66
-9 -14 -5 -50 -11 -80 -13 -30 -2 -91 -10 -135 -18 -44 -8 -86 -12 -92 -10 -7
3 -16 -3 -19 -12 -5 -13 -14 -15 -37 -11 -18 4 -43 0 -64 -11 -29 -13 -39 -14
-55 -4 -12 7 -23 9 -27 4 -13 -17 -51 -32 -67 -26 -9 3 -19 1 -23 -4 -3 -5
-46 -24 -96 -42 -93 -33 -155 -59 -215 -91 -19 -10 -73 -39 -120 -63 -47 -24
-106 -59 -131 -78 -25 -19 -56 -41 -69 -49 -12 -8 -32 -22 -44 -31 -11 -9 -34
-23 -51 -32 -16 -9 -45 -30 -64 -47 -36 -32 -57 -39 -48 -16 4 10 1 13 -9 9
-10 -4 -12 0 -8 11 5 12 2 15 -10 10 -13 -5 -16 1 -16 30 0 25 4 36 15 36 9 0
15 10 15 26 0 14 5 34 11 46 15 27 2 118 -17 118 -17 0 -19 47 -2 52 9 3 9 12
0 38 -15 41 -15 73 -2 65 6 -3 10 -2 10 4 0 15 -22 18 -60 10 -19 -5 -44 -6
-54 -3 -15 5 -18 3 -13 -10 5 -12 0 -16 -18 -16 -14 0 -35 -11 -47 -25 -13
-16 -32 -25 -50 -25 -15 0 -27 -3 -27 -7 1 -5 1 -15 0 -23 -1 -13 -2 -13 -11
0 -8 13 -10 12 -10 -2 0 -13 -8 -18 -31 -18 -17 0 -28 -4 -24 -10 8 -13 -28
-47 -45 -42 -8 3 -10 0 -6 -7 5 -8 0 -10 -18 -7 -15 3 -24 1 -21 -4 6 -9 -55
-60 -71 -60 -14 0 -102 -86 -164 -160 -30 -36 -58 -66 -62 -68 -5 -2 -8 -8 -8
-14 0 -5 -15 -28 -34 -51 -43 -54 -107 -165 -155 -270 -161 -350 -173 -739
-34 -1112 43 -116 131 -277 202 -371 37 -49 73 -89 79 -89 5 0 14 -3 18 -7 4
-5 1 -8 -6 -8 -21 0 1 -16 31 -24 19 -4 29 -1 33 10 3 8 11 14 18 13 7 -1 21
1 31 6 9 4 26 5 37 2 15 -4 20 0 20 13 0 10 -4 20 -9 22 -4 2 -5 12 0 23 6 17
8 17 8 3 1 -12 9 -18 26 -18 24 0 26 -2 19 -37 -4 -21 -14 -46 -23 -56 -15
-18 -14 -20 12 -39 16 -12 45 -36 64 -54 35 -34 63 -44 63 -23 0 5 5 7 10 4 8
-5 8 -11 0 -20 -8 -9 -8 -15 0 -20 5 -3 10 -17 10 -30 0 -13 5 -27 10 -30 6
-4 8 -10 5 -15 -3 -4 2 -21 10 -36 8 -16 15 -35 15 -41 0 -7 5 -13 11 -13 5 0
7 -5 3 -12 -5 -8 -2 -9 9 -5 9 3 19 2 22 -3 10 -15 68 -12 93 6 12 8 22 12 22
7 0 -4 22 -8 50 -8 35 0 51 4 54 15 3 8 4 -3 2 -25 l-4 -41 40 0 c24 0 34 3
26 8 -7 4 -9 8 -5 8 17 0 56 -33 50 -43 -3 -6 -1 -7 5 -3 7 4 27 -5 46 -19 38
-29 76 -40 76 -22 -1 42 -13 57 -47 57 l-36 0 7 39 c3 22 9 47 13 57 5 13 3
15 -7 9 -8 -5 -11 -3 -8 6 3 8 11 13 17 11 7 -1 10 2 6 7 -3 6 -19 8 -35 4
-27 -5 -31 -3 -36 26 -5 21 -10 29 -17 22 -5 -5 -17 -7 -26 -4 -13 5 -13 2 3
-15 11 -12 16 -25 13 -28 -3 -4 -17 7 -31 22 -27 31 -35 54 -12 35 9 -8 16 -8
20 -2 4 5 1 13 -6 18 -7 4 -24 29 -37 55 -21 42 -22 51 -11 78 7 17 20 35 29
40 10 6 11 10 4 10 -7 0 -13 6 -13 13 0 8 -11 19 -25 25 -14 6 -25 17 -25 23
0 8 -4 8 -12 1 -26 -21 -76 -24 -102 -7 -24 16 -26 16 -26 1 0 -19 1 -19 -41
-2 -32 13 -85 60 -64 56 21 -4 29 1 16 9 -7 5 -14 20 -13 34 0 14 -7 28 -14
31 -8 3 -11 12 -8 20 4 9 -5 20 -24 30 -17 9 -40 28 -52 43 l-21 27 30 23 c31
25 32 47 3 57 -40 13 -97 54 -100 72 -1 10 -8 36 -14 56 -6 20 -7 45 -3 55 5
10 7 24 6 32 -1 8 2 10 9 6 9 -5 10 -1 6 13 -5 15 0 27 18 43 31 27 32 37 9
77 -11 19 -28 33 -47 36 -29 6 -29 7 -10 22 10 8 13 13 7 9 -8 -4 -13 0 -13
10 0 10 6 15 13 12 8 -3 20 -1 27 3 11 7 11 12 2 23 -10 11 -9 22 3 51 11 26
13 42 5 56 -16 30 -12 65 11 86 17 15 20 26 15 56 -6 34 -2 44 40 95 26 32 58
62 71 66 18 7 22 14 18 28 -4 11 -1 26 5 34 7 8 9 15 5 15 -5 0 0 8 9 19 11
12 15 27 11 42 -4 17 1 31 16 48 13 13 24 38 26 54 2 17 7 35 12 41 5 6 11 27
13 46 2 27 14 45 47 75 24 22 54 56 66 75 21 33 25 35 69 32 l46 -4 20 46 c21
50 47 59 84 31 11 -8 24 -15 29 -15 9 0 4 72 -8 103 -4 10 -1 24 6 34 20 24
113 63 136 57 25 -7 51 18 59 54 15 77 58 116 128 115 20 0 43 10 64 28 18 16
43 29 56 29 13 0 31 8 40 19 14 16 29 18 89 16 71 -3 99 6 105 33 1 8 15 24
30 37 15 13 41 35 57 50 49 43 75 59 84 49 15 -15 24 -111 12 -119 -21 -12
-11 -26 11 -14 18 10 24 8 39 -12 25 -32 24 -37 -6 -45 -17 -4 -32 -1 -44 10
-27 24 -33 20 -25 -20 6 -32 3 -39 -22 -60 -66 -55 -99 -63 -145 -33 -30 20
-153 31 -168 16 -14 -14 -14 -40 0 -32 17 11 -1 -68 -19 -82 -9 -7 -24 -13
-34 -13 -18 0 -48 -46 -48 -74 0 -8 -5 -16 -12 -18 -8 -3 -5 -11 8 -24 15 -15
35 -19 99 -21 44 -1 82 -2 85 -3 3 0 -8 -12 -23 -26 -27 -25 -29 -25 -42 -8
-12 16 -14 17 -15 3 0 -22 -41 -73 -49 -61 -10 17 -61 26 -61 12 0 -9 -11 -11
-34 -7 -44 7 -71 -17 -31 -27 30 -8 34 -40 8 -69 -17 -20 -17 -20 2 -12 11 5
29 7 40 6 11 -1 57 -4 103 -7 45 -3 82 -10 82 -15 0 -5 -7 -9 -15 -9 -8 0 -15
-5 -15 -11 0 -5 5 -7 10 -4 6 3 10 2 10 -4 0 -5 -4 -12 -9 -16 -5 -3 -12 -19
-16 -36 -6 -24 -9 -28 -21 -18 -10 8 -14 8 -14 1 0 -6 -6 -9 -14 -6 -19 7 -32
-16 -15 -27 11 -7 9 -9 -8 -9 -12 0 -23 6 -26 13 -3 9 -7 9 -19 -1 -9 -7 -22
-10 -29 -8 -8 2 -26 7 -41 10 -15 4 -26 12 -24 19 1 6 1 9 -1 5 -8 -14 -29 -9
-77 17 -53 28 -56 29 -56 16 0 -5 24 -21 53 -35 51 -24 51 -25 15 -19 -27 4
-46 0 -65 -12 -16 -10 -22 -12 -15 -4 10 11 3 15 -35 25 -27 7 -48 12 -49 11
0 -1 12 -27 28 -57 24 -48 29 -52 34 -32 7 25 24 30 24 6 0 -12 7 -10 31 11
17 14 34 24 36 21 3 -3 -7 -16 -23 -29 -41 -35 -39 -72 6 -94 19 -9 29 -18 22
-21 -9 -3 -5 -11 13 -27 14 -13 25 -29 25 -35 0 -6 -10 -2 -22 10 -12 11 -24
20 -27 21 -44 6 -65 19 -43 26 17 6 15 23 -3 23 -10 0 -15 10 -15 30 0 37 -27
41 -56 9 -37 -41 -51 -42 -84 -9 -34 35 -45 37 -59 13 -9 -16 -10 -16 -11 5 0
30 -39 30 -68 -1 -30 -31 -28 -40 8 -35 17 3 30 0 31 -6 3 -47 26 -94 48 -101
11 -3 29 -21 41 -39 23 -39 25 -50 7 -43 -9 3 -21 -17 -36 -60 -13 -35 -25
-62 -28 -59 -3 3 -17 -7 -31 -22 -20 -21 -24 -23 -18 -7 5 11 9 27 10 35 0 8
5 18 11 22 5 4 6 10 3 14 -4 3 -14 0 -22 -8 -11 -12 -12 -18 -3 -27 9 -9 4 -9
-21 0 -39 14 -56 4 -19 -10 24 -9 26 -13 17 -37 -9 -24 -8 -26 10 -21 11 3 20
0 20 -6 0 -8 3 -7 9 1 7 11 10 10 15 -3 8 -23 8 -27 -4 -20 -13 8 0 -28 13
-36 16 -11 -3 -29 -28 -27 -28 3 -37 20 -29 53 4 17 1 25 -14 29 -11 4 -23 13
-26 22 -5 13 -9 13 -31 -2 -25 -16 -36 -64 -15 -64 6 0 2 -10 -10 -22 -13 -15
-17 -25 -10 -32 13 -13 13 -29 0 -21 -6 3 -10 -5 -10 -19 0 -18 9 -30 28 -40
15 -8 34 -26 41 -40 8 -14 21 -26 29 -28 12 -2 17 -19 19 -70 1 -37 9 -81 18
-99 15 -29 18 -30 34 -15 23 21 37 20 60 -3 17 -17 17 -24 7 -69 -6 -28 -14
-54 -19 -58 -10 -10 -9 -54 1 -54 4 0 13 5 20 10 9 7 9 7 2 -2 -25 -30 -4
-113 33 -127 34 -13 47 -33 45 -74 -1 -22 5 -44 15 -55 10 -10 17 -23 17 -29
0 -18 31 -37 77 -49 44 -11 45 -11 64 20 10 17 19 34 19 39 0 17 28 5 58 -26
24 -24 32 -42 32 -68 0 -28 8 -43 34 -67 19 -17 39 -38 44 -47 8 -15 13 -15
65 0 37 11 62 13 74 7 10 -5 23 -7 30 -5 7 2 21 -1 32 -7 16 -8 19 -8 15 3
-11 29 20 37 74 20 29 -9 52 -20 52 -25 0 -4 9 -8 20 -8 11 0 20 -4 20 -10 0
-5 9 -14 20 -20 17 -9 19 -8 13 7 -4 10 5 5 19 -12 25 -28 29 -30 118 -31 85
-2 94 -4 120 -29 24 -23 37 -27 111 -30 124 -7 149 -5 149 7 0 11 -38 48 -50
48 -5 0 -10 4 -10 9 0 5 29 -7 63 -27 49 -28 63 -41 59 -55 -3 -10 -11 -21
-18 -24 -8 -3 -14 -9 -14 -14 0 -4 12 -2 28 6 15 8 35 16 45 19 9 3 22 16 27
28 8 21 9 21 10 3 1 -19 2 -19 20 4 15 18 20 19 20 7 0 -9 6 -16 14 -16 26 0
66 -41 77 -80 11 -37 10 -44 -18 -98 l-30 -57 21 -16 c11 -9 39 -19 61 -23 22
-4 52 -19 66 -33 25 -23 29 -24 55 -11 33 16 106 15 147 -1 16 -6 36 -11 45
-11 9 0 30 -7 45 -15 21 -11 34 -12 48 -5 10 6 36 10 56 9 56 -2 197 20 201
31 2 6 10 16 17 24 15 14 2 36 -20 36 -13 0 -41 47 -33 55 3 3 16 -4 29 -16
13 -11 18 -18 12 -14 -7 3 -13 1 -13 -4 0 -6 6 -11 13 -11 6 0 21 -12 31 -27
11 -14 13 -23 6 -18 -9 5 -11 4 -6 -3 11 -18 26 -14 26 7 0 10 6 24 14 31 12
9 15 8 13 -9 -1 -12 -5 -21 -9 -21 -16 0 -7 -46 15 -80 23 -36 47 -44 69 -22
6 6 19 12 28 13 8 1 4 4 -10 8 -17 5 -24 13 -22 27 2 10 5 34 6 52 2 18 11 39
22 46 25 19 103 30 152 21 39 -6 53 4 56 39 1 13 26 20 26 8 0 -5 11 -7 23 -5
14 3 31 -2 41 -12 10 -11 26 -15 42 -12 30 5 53 -14 61 -54 3 -16 12 -29 20
-29 9 0 12 7 9 18 -2 9 -7 27 -11 39 -3 12 -1 24 4 27 6 4 8 13 4 21 -3 9 1
15 11 15 9 0 16 7 16 15 0 9 16 23 35 32 34 16 46 45 25 58 -6 4 -2 22 11 47
11 22 16 37 10 34 -13 -8 -25 12 -25 43 0 19 8 28 32 38 31 13 32 12 32 -13 0
-23 -3 -26 -25 -22 -30 6 -30 6 -7 -19 17 -21 18 -21 41 -2 13 11 21 25 17 34
-7 19 29 42 73 47 24 2 35 -2 38 -12 4 -13 3 -13 -6 0 -5 8 -13 12 -16 8 -3
-3 1 -13 10 -21 8 -9 15 -23 15 -32 0 -9 4 -14 9 -11 5 4 8 17 7 31 -2 13 1
22 5 19 14 -8 10 9 -6 30 -8 11 -21 21 -29 22 -8 1 -22 7 -33 13 -21 12 -15
13 57 13 l45 -1 -50 24 c-34 17 -43 25 -28 25 12 0 24 -4 27 -9 3 -5 30 -15
58 -21 29 -7 70 -20 91 -29 32 -14 37 -20 38 -51 0 -19 3 -28 6 -20 12 31 93
98 127 104 26 5 36 13 40 32 11 42 47 84 73 84 35 0 45 -36 21 -77 l-20 -33
25 -30 c14 -16 28 -39 32 -50 7 -22 -35 -115 -78 -171 -32 -43 -33 -49 -7 -49
11 0 20 -4 20 -8 0 -5 7 -9 15 -9 8 0 15 3 15 6 0 3 10 7 23 7 12 1 38 6 57
11 19 5 41 8 48 6 13 -5 15 -34 5 -71 -5 -20 -11 -23 -37 -19 -38 6 -86 -20
-86 -46 0 -14 -5 -17 -20 -12 -12 4 -20 2 -20 -6 0 -9 -3 -9 -14 0 -10 8 -13
26 -11 51 2 22 0 42 -5 45 -5 3 -6 13 -3 21 4 10 -2 17 -16 21 -11 3 -21 9
-21 13 0 4 -17 8 -37 8 -47 0 -89 42 -73 71 7 14 5 24 -9 40 -23 26 -31 27
-31 1 0 -21 -25 -67 -45 -83 -6 -5 0 -7 13 -4 12 3 20 1 16 -4 -9 -16 23 -75
51 -93 14 -9 25 -12 25 -6 0 6 12 4 30 -5 22 -12 29 -22 28 -41 -2 -14 -8 -30
-15 -36 -18 -15 -17 -42 2 -34 8 3 15 1 15 -4 0 -5 10 -9 23 -7 18 2 23 -4 25
-27 4 -36 -15 -83 -42 -101 -24 -18 -69 -19 -98 -4 -15 8 -26 8 -42 0 -27 -14
-109 -31 -116 -25 -3 3 3 11 13 18 9 8 20 32 23 57 5 36 2 48 -16 67 -26 28
-34 28 -50 -3 -7 -13 -18 -22 -23 -18 -7 4 -8 -26 -4 -88 l5 -94 -51 -42 c-45
-38 -97 -57 -97 -35 0 4 -26 6 -59 4 -58 -4 -59 -4 -77 -44 -10 -22 -28 -44
-40 -48 -28 -11 -78 2 -102 26 -16 17 -17 17 -21 -2 -5 -28 -40 -74 -57 -74
-8 0 -14 -5 -14 -11 0 -17 -31 -43 -38 -32 -4 5 -19 12 -34 15 -21 4 -34 -2
-54 -23 -24 -25 -34 -28 -89 -28 -59 1 -62 2 -74 32 -16 37 -18 44 -20 57 -2
19 -30 10 -48 -17 -34 -50 -75 -83 -102 -83 -15 0 -32 -5 -38 -11 -17 -17 -50
22 -58 70 -5 31 -3 48 10 67 11 18 16 41 13 70 -2 24 0 44 3 44 10 0 32 78 26
93 -4 10 7 20 34 33 l40 17 -38 18 c-49 24 -46 24 -62 -13 -8 -18 -22 -39 -32
-46 -10 -6 -20 -25 -24 -41 -10 -47 -93 -73 -120 -38 -25 34 -46 35 -102 4
-47 -25 -54 -33 -51 -56 4 -32 37 -40 63 -15 26 26 182 22 209 -6 19 -19 19
-19 -5 -54 -13 -19 -35 -41 -49 -48 -14 -6 -34 -20 -45 -29 -11 -9 -36 -20
-55 -23 -19 -4 -47 -9 -63 -13 -15 -3 -33 -1 -40 5 -37 30 -167 19 -186 -17
-9 -14 -12 -14 -31 7 -11 12 -36 29 -55 37 -32 13 -42 31 -36 68 0 4 -4 7 -9
7 -13 0 -60 -49 -60 -61 0 -5 -6 -9 -14 -9 -7 0 -29 -11 -49 -24 -19 -13 -38
-22 -41 -18 -9 8 -7 -12 2 -24 4 -5 -2 0 -13 11 l-21 21 -30 -33 c-25 -27 -28
-33 -15 -39 22 -9 399 -23 656 -23 194 -1 247 3 530 38 57 7 273 63 452 117
143 43 302 112 447 192 78 44 171 95 208 116 149 81 424 316 560 477 56 66
109 171 153 304 7 22 30 85 51 140 36 98 37 103 39 261 1 89 5 166 8 171 7 12
-20 117 -40 156 -8 16 -30 50 -50 75 -20 26 -53 83 -74 127 -21 44 -64 112
-94 150 -121 151 -159 195 -172 195 -7 0 -17 10 -22 23 -8 19 -64 72 -146 136
l-20 16 20 -24 c11 -13 35 -40 53 -59 18 -20 30 -42 28 -48 -3 -7 2 -18 11
-26 9 -7 24 -26 35 -43 10 -16 18 -26 18 -22 0 5 7 2 15 -6 8 -8 13 -27 12
-43 -2 -24 2 -29 28 -34 23 -4 33 -13 42 -40 7 -19 12 -31 12 -27 1 5 18 -2
40 -13 28 -16 39 -29 39 -46 0 -27 -13 -32 -22 -8 -3 9 -15 14 -28 12 -24 -3
-23 -24 0 -22 7 1 24 -13 39 -32 24 -32 25 -36 9 -53 -21 -23 -11 -54 15 -46
21 7 31 2 84 -40 52 -42 58 -56 40 -99 l-15 -36 -35 22 c-19 13 -35 28 -36 33
-2 27 -8 45 -24 69 -19 29 -26 31 -42 15 -8 -8 -17 -8 -31 0 -20 10 -20 10 -5
-19 16 -32 10 -115 -8 -104 -5 3 -9 0 -9 -5 0 -6 -10 -11 -22 -11 -19 0 -20
-2 -8 -10 21 -13 -5 -13 -30 0 -21 11 -50 99 -50 150 0 28 -2 31 -15 20 -8 -7
-15 -9 -15 -4 0 5 -19 23 -41 39 -49 36 -66 62 -49 79 8 8 10 7 5 -6 -6 -15
-2 -18 21 -17 60 2 84 10 84 28 0 9 5 22 10 27 7 7 4 16 -10 29 -22 20 -36 13
-42 -19 -6 -34 -32 -42 -78 -21 -22 10 -44 23 -47 29 -3 6 -2 8 2 3 5 -4 14 7
20 25 7 23 7 35 0 40 -20 15 -35 8 -32 -14 1 -14 -3 -22 -10 -21 -7 2 -10 -3
-7 -11 3 -8 1 -17 -5 -21 -6 -3 -11 -1 -11 4 0 6 -6 11 -13 11 -14 0 -57 40
-57 53 0 3 8 4 18 0 9 -3 6 3 -8 13 -32 23 -40 34 -40 59 0 18 -5 20 -40 17
-55 -6 -51 12 8 34 26 10 54 23 63 31 9 7 24 10 34 7 13 -5 16 -2 13 12 -2 10
-12 20 -23 22 -11 3 -24 10 -28 18 -7 12 -13 11 -39 -2 -27 -14 -37 -14 -70
-3 -21 6 -38 16 -38 20 0 5 -16 15 -36 24 -40 16 -38 27 6 45 16 7 30 15 30
19 0 14 -67 30 -105 25 -22 -3 -50 -5 -63 -5 -13 1 -21 -3 -18 -8 3 -5 -9 -11
-27 -13 l-33 -4 12 36 c7 19 11 36 10 37 -1 1 -19 0 -39 -4 -38 -6 -38 -6 -19
-27 19 -21 26 -56 11 -56 -4 0 -15 3 -24 6 -13 5 -14 8 -3 15 10 7 10 9 -2 9
-8 0 -21 9 -28 21 -8 12 -9 18 -3 15 7 -4 8 -1 5 8 -3 9 -10 16 -15 16 -5 0
-9 16 -9 35 0 27 4 35 18 35 14 0 15 2 2 10 -12 7 -12 10 4 16 13 5 24 1 35
-13 13 -16 21 -18 39 -10 15 7 20 16 17 27 -3 10 -1 30 5 45 11 30 4 69 -10
60 -11 -7 -67 20 -72 35 -1 5 -14 7 -28 3 -23 -6 -23 -7 15 -24 24 -10 32 -18
21 -18 -17 -1 -17 -3 -2 -26 24 -36 21 -40 -33 -37 -45 4 -49 2 -60 -25 -6
-15 -18 -38 -25 -51 -11 -20 -14 -21 -20 -7 -8 23 -8 27 4 20 16 -10 12 11 -5
25 -8 7 -15 19 -15 26 0 8 -7 14 -15 14 -8 0 -15 5 -15 11 0 10 -7 10 -67 -4
-24 -6 -25 -16 -3 -47 26 -36 19 -52 -10 -25 -12 10 -20 13 -20 6 0 -6 15 -20
33 -31 17 -11 27 -20 20 -20 -6 0 -30 16 -53 35 -23 19 -46 32 -51 29 -5 -3
-9 0 -9 5 0 6 -3 10 -7 10 -32 -5 -54 3 -51 17 5 27 37 42 48 24 5 -8 10 -10
10 -5 0 6 18 23 40 39 42 31 50 46 25 46 -8 0 -15 6 -15 13 0 8 -6 14 -12 14
-7 1 -27 7 -44 14 -27 10 -40 10 -85 -4 -62 -19 -96 -19 -104 1 -2 7 -1 10 4
7 13 -7 25 76 16 114 -4 17 -13 31 -21 31 -8 0 -14 7 -14 15 0 8 -6 15 -14 15
-7 0 -25 15 -39 33 -13 18 -44 46 -68 62 -23 17 -55 42 -70 58 -15 15 -39 27
-52 27 -14 0 -31 9 -39 21 -9 14 -24 21 -43 21 -17 0 -35 5 -42 10 -7 5 -16 7
-21 4 -5 -3 -25 10 -45 29 -20 19 -50 41 -67 50 -17 9 -28 20 -25 25 10 16 34
11 56 -11 15 -15 28 -19 48 -14 20 4 32 0 46 -15 13 -15 30 -20 59 -19 54 1
157 -11 179 -23 9 -5 17 -19 17 -31 0 -45 109 -97 143 -68 8 6 34 14 58 17 34
5 56 0 102 -19 56 -25 57 -27 57 -66 0 -22 5 -41 13 -44 13 -5 67 19 67 31 0
4 -25 25 -55 47 -30 22 -55 42 -55 45 0 11 -66 38 -170 70 -58 18 -120 39
-138 46 -18 8 -51 16 -75 20 -23 3 -69 14 -102 24 -61 19 -225 50 -262 50 -29
0 -56 35 -57 75 -1 30 -6 36 -46 54 -25 11 -61 23 -80 27 -31 6 -33 5 -21 -10z
m-335 -98 c5 2 6 -4 2 -13 -3 -10 8 -28 32 -51 29 -28 31 -32 10 -19 -29 18
-38 9 -15 -14 10 -10 8 -12 -8 -9 -19 3 -55 -23 -55 -40 0 -4 -9 -14 -20 -22
-11 -8 -20 -25 -20 -38 0 -13 -4 -20 -10 -17 -5 3 -20 0 -32 -7 -13 -7 -29
-11 -35 -10 -7 2 -10 -3 -7 -12 3 -8 0 -17 -7 -22 -8 -4 -10 -3 -5 4 4 7 1 12
-8 12 -23 0 -25 -33 -3 -57 12 -13 15 -23 9 -23 -7 0 -12 5 -12 11 0 6 -7 9
-15 5 -21 -8 -41 2 -59 30 -16 23 -12 62 12 134 2 8 6 25 8 37 3 29 58 109 80
117 9 3 23 1 30 -5 10 -8 21 -6 46 9 26 17 36 18 53 9 11 -6 24 -10 29 -9z
m81 -68 c3 -5 1 -10 -4 -10 -6 0 -11 5 -11 10 0 6 2 10 4 10 3 0 8 -4 11 -10z
m61 -15 c10 -9 11 -15 4 -15 -6 0 -18 7 -26 15 -10 9 -11 15 -4 15 6 0 18 -7
26 -15z m74 -35 c0 -5 -2 -10 -4 -10 -3 0 -8 5 -11 10 -3 6 -1 10 4 10 6 0 11
-4 11 -10z m-736 -50 c15 -23 24 -45 21 -50 -11 -18 -60 -11 -73 10 -7 11 -19
20 -27 20 -20 0 -19 19 2 42 25 28 48 22 77 -22z m198 13 c23 -21 23 -30 -2
-43 -28 -15 -63 15 -49 42 12 22 27 23 51 1z m406 5 c31 -31 -3 -39 -39 -8
l-24 19 26 1 c14 0 30 -5 37 -12z m-658 -104 c11 -11 12 -19 4 -32 -19 -29
-43 -25 -80 12 -30 30 -34 39 -24 51 10 13 17 13 48 -1 21 -8 44 -22 52 -30z
m120 -2 c0 -14 -23 -32 -42 -32 -18 0 -25 20 -11 33 9 10 53 9 53 -1z m1050
-2 c0 -5 -2 -10 -4 -10 -3 0 -8 5 -11 10 -3 6 -1 10 4 10 6 0 11 -4 11 -10z
m140 -4 c0 -2 -7 -9 -15 -16 -12 -10 -15 -10 -15 4 0 9 7 16 15 16 8 0 15 -2
15 -4z m-140 -26 c0 -5 -2 -10 -4 -10 -3 0 -8 5 -11 10 -3 6 -1 10 4 10 6 0
11 -4 11 -10z m104 -41 c5 -36 5 -37 -19 -25 -28 13 -33 26 -9 26 12 0 15 7
11 26 -2 14 -1 22 3 17 5 -4 11 -24 14 -44z m-2527 9 c-3 -8 -6 -5 -6 6 -1 11
2 17 5 13 3 -3 4 -12 1 -19z m1526 16 c3 -3 2 -16 -3 -28 -7 -19 -3 -23 26
-33 31 -9 37 -8 49 11 15 20 15 20 15 -7 0 -16 -4 -26 -10 -22 -5 3 -10 1 -10
-4 0 -6 7 -11 15 -11 8 0 15 -5 15 -10 0 -6 -11 -8 -25 -4 -21 5 -25 3 -25
-15 0 -12 -5 -21 -11 -21 -6 0 -8 -7 -4 -17 5 -14 4 -15 -6 -6 -18 18 -52 -3
-40 -25 6 -10 6 -23 0 -34 -6 -11 -6 -18 0 -18 13 0 22 30 16 51 -4 11 -2 19
4 19 6 0 11 -4 11 -10 0 -5 5 -9 12 -7 6 1 12 -9 12 -23 0 -18 -5 -24 -17 -22
-9 2 -17 -1 -17 -5 -1 -40 -50 -36 -50 4 0 13 -4 22 -10 18 -5 -3 -7 -12 -4
-20 8 -20 -20 -45 -45 -40 -12 2 -21 -1 -21 -7 0 -5 7 -7 16 -4 14 5 15 4 4
-9 -9 -11 -9 -15 -1 -15 7 0 9 -5 5 -11 -4 -8 -10 -5 -17 7 -23 43 -49 64 -68
53 -11 -5 -19 -8 -20 -7 0 2 -2 12 -4 23 -2 11 -6 33 -10 48 -5 23 -2 30 15
34 13 4 20 14 20 30 0 13 4 22 9 19 4 -3 24 11 44 32 46 47 64 62 75 62 5 0
15 7 22 15 13 16 23 19 33 9z m237 -4 c0 10 3 10 14 1 11 -9 15 -9 20 1 3 7 4
0 1 -15 -3 -16 -7 -57 -9 -91 -4 -63 -21 -106 -42 -106 -6 0 -12 10 -12 23 0
12 -5 41 -11 64 -10 36 -9 48 4 74 9 17 12 28 7 25 -6 -4 -8 2 -5 14 4 16 8
18 19 9 11 -9 14 -8 14 1z m433 -62 c-7 -13 -32 3 -27 18 14 47 17 49 24 19 3
-16 5 -33 3 -37z m79 -8 c2 -25 0 -39 -7 -36 -5 2 -9 9 -7 15 1 6 -2 11 -6 11
-4 0 -9 11 -10 25 -1 16 3 25 12 25 9 0 15 -14 18 -40z m308 -21 c0 -4 -9 -11
-20 -14 -15 -5 -19 -12 -14 -30 3 -12 1 -26 -4 -29 -12 -7 -21 15 -27 64 -4
30 -3 31 14 16 26 -23 34 -20 27 12 -6 26 -6 26 9 8 8 -11 15 -23 15 -27z
m-1418 -1 c-9 -9 -12 -7 -12 12 0 19 3 21 12 12 9 -9 9 -15 0 -24z m1058 -14
c0 -14 -5 -24 -11 -22 -6 2 -10 7 -10 11 1 4 1 16 1 28 0 11 5 17 10 14 6 -3
10 -18 10 -31z m-43 4 c-3 -8 -6 -5 -6 6 -1 11 2 17 5 13 3 -3 4 -12 1 -19z
m-1044 -16 c-5 -22 -23 -31 -23 -12 0 10 23 40 27 36 1 -1 0 -12 -4 -24z
m1201 -9 c-4 -32 -3 -35 6 -15 13 32 31 19 21 -16 -4 -15 -6 -32 -4 -39 3 -7
-11 -18 -29 -26 -19 -8 -42 -22 -51 -32 -10 -9 -21 -14 -25 -10 -4 4 7 18 23
31 24 19 26 24 12 24 -10 0 -15 5 -12 10 3 6 15 10 26 10 15 0 19 7 19 34 0
32 8 66 15 66 2 0 2 -17 -1 -37z m-659 7 c3 -6 -1 -7 -9 -4 -18 7 -21 14 -7
14 6 0 13 -4 16 -10z m919 -7 c5 -13 9 -14 15 -5 5 8 8 0 8 -20 0 -18 -2 -27
-4 -21 -4 10 -8 9 -20 -2 -17 -17 -43 -20 -43 -5 0 6 6 13 14 16 9 3 13 15 10
30 -5 27 11 33 20 7z m-999 -39 c-17 -34 -20 -18 -4 23 6 15 13 23 15 17 3 -6
-2 -24 -11 -40z m895 36 c0 -4 -14 -7 -30 -7 -18 0 -26 3 -19 8 15 9 49 8 49
-1z m-670 -20 c0 -5 -5 -10 -11 -10 -5 0 -7 5 -4 10 3 6 8 10 11 10 2 0 4 -4
4 -10z m-1009 -64 c-12 -18 -21 -41 -21 -50 0 -21 -26 -21 -34 0 -9 22 3 32
15 14 8 -12 9 -11 5 5 -14 58 -17 90 -7 75 6 -8 11 -23 11 -32 0 -28 19 -21
26 10 9 38 18 50 22 29 2 -9 -6 -32 -17 -51z m805 29 c-4 -24 -16 -30 -16 -7
0 12 4 22 9 22 5 0 8 -7 7 -15z m399 -25 c-3 -5 -13 -10 -22 -10 -9 0 -24 -6
-32 -14 -9 -7 -29 -18 -46 -24 l-30 -11 35 2 c29 2 36 -2 38 -21 2 -15 -3 -25
-18 -30 -12 -4 -21 -12 -20 -17 0 -6 -11 -11 -25 -13 -17 -2 -25 1 -25 12 0 8
-5 16 -11 18 -6 2 -8 14 -4 31 8 29 39 50 109 72 52 17 59 17 51 5z m540 0 c3
-5 2 -10 -4 -10 -5 0 -13 5 -16 10 -3 6 -2 10 4 10 5 0 13 -4 16 -10z m-744
-40 c-4 -3 -13 -14 -20 -25 -12 -19 -12 -19 -8 3 4 16 0 22 -11 22 -12 0 -9 5
8 13 17 9 27 10 32 3 4 -6 3 -13 -1 -16z m569 16 c0 -2 -7 -7 -16 -10 -8 -3
-12 -2 -9 4 6 10 25 14 25 6z m45 -26 c-3 -5 -21 -9 -38 -9 l-32 2 35 7 c19 4
36 8 38 9 2 0 0 -3 -3 -9z m-2405 -14 c0 -2 -7 -9 -15 -16 -12 -10 -15 -10
-15 4 0 9 7 16 15 16 8 0 15 -2 15 -4z m2268 -23 c-7 -9 -21 -12 -39 -8 -15 3
-30 1 -34 -4 -4 -7 3 -11 17 -11 13 0 31 -7 42 -15 17 -13 16 -14 -10 -11 -16
2 -34 4 -40 5 -6 0 -24 12 -39 25 l-28 24 34 5 c19 2 51 4 71 4 30 -1 35 -3
26 -14z m-138 -23 c19 -26 19 -30 5 -30 -9 0 -19 9 -22 20 -3 11 -12 20 -19
20 -8 0 -14 5 -14 10 0 21 29 9 50 -20z m-329 -11 c11 0 11 -2 -1 -6 -26 -11
-42 -31 -27 -36 9 -3 8 -9 -4 -21 -13 -14 -24 -15 -65 -8 -46 9 -47 10 -13 11
20 0 41 7 47 14 9 10 -2 12 -56 10 -57 -2 -63 -1 -37 8 17 6 36 11 44 11 7 1
24 12 38 26 22 22 25 23 42 8 10 -9 24 -16 32 -17z m-707 -192 c10 -8 15 -17
10 -20 -6 -3 -39 21 -74 54 -36 32 -68 59 -72 59 -5 0 -8 7 -8 15 0 8 -6 15
-14 15 -16 0 -66 62 -66 82 0 7 46 -33 103 -90 56 -56 111 -108 121 -115z
m1421 203 c-27 -12 -43 -12 -25 0 8 5 22 9 30 9 10 0 8 -3 -5 -9z m252 -12
c-3 -8 -6 -5 -6 6 -1 11 2 17 5 13 3 -3 4 -12 1 -19z m333 -3 c15 -18 9 -50
-10 -50 -9 0 -15 12 -17 33 -3 34 7 41 27 17z m-260 -20 c0 -8 -4 -16 -9 -19
-5 -3 -8 5 -8 19 0 14 3 22 8 19 5 -3 9 -11 9 -19z m80 -5 c6 -11 8 -20 6 -20
-3 0 -10 9 -16 20 -6 11 -8 20 -6 20 3 0 10 -9 16 -20z m-2005 -94 c90 -82
137 -140 129 -161 -7 -16 -8 -16 -17 0 -7 14 -11 15 -18 4 -10 -17 8 -40 27
-32 8 3 14 1 14 -5 0 -6 3 -19 6 -29 6 -14 4 -16 -6 -6 -16 15 -50 -4 -43 -24
6 -16 -13 -18 -22 -2 -4 6 2 17 14 25 24 17 19 34 -9 34 -10 0 -20 6 -22 12
-3 7 -13 13 -24 13 -12 0 -18 6 -16 16 1 9 -6 23 -15 30 -16 13 -17 12 -4 -4
29 -37 1 -26 -37 15 -28 30 -37 45 -29 51 7 5 2 5 -12 2 -16 -5 -21 -4 -17 4
4 6 2 9 -7 6 -7 -3 -19 5 -27 19 -7 14 -17 23 -21 20 -5 -3 -6 1 -3 9 3 8 -2
20 -11 27 -11 9 -15 9 -15 1 0 -8 -4 -8 -14 1 -21 20 -1 48 33 48 16 0 34 -7
41 -16 8 -8 23 -20 34 -26 18 -10 17 -6 -7 25 -15 19 -27 39 -27 42 0 9 49
-30 125 -99z m905 83 c0 -6 -4 -7 -10 -4 -5 3 -10 -1 -10 -9 0 -9 6 -16 13
-17 6 -1 1 -4 -13 -8 -33 -10 -34 -9 -13 27 16 28 33 34 33 11z m-399 -17 c6
-17 5 -22 -7 -22 -11 0 -14 5 -10 17 4 9 1 20 -6 25 -10 8 -10 9 1 6 8 -2 18
-14 22 -26z m-141 -3 c0 -5 -4 -9 -10 -9 -5 0 -10 7 -10 16 0 8 5 12 10 9 6
-3 10 -10 10 -16z m746 -16 c-10 -10 -19 5 -10 18 6 11 8 11 12 0 2 -7 1 -15
-2 -18z m911 8 c-1 -3 5 -17 12 -29 7 -13 10 -27 6 -30 -3 -3 -8 4 -12 16 -3
12 -9 22 -13 22 -4 0 -10 6 -13 13 -3 8 1 14 8 14 8 0 13 -3 12 -6z m-2286
-24 c-10 -9 -11 -8 -5 6 3 10 9 15 12 12 3 -3 0 -11 -7 -18z m653 -9 c-3 -4
-10 -8 -16 -8 -5 0 -22 -9 -38 -20 -15 -11 -29 -17 -32 -15 -2 3 -22 -14 -43
-36 -22 -24 -34 -44 -28 -47 17 -11 13 -70 -8 -117 -11 -25 -19 -46 -18 -47 6
-7 -23 -48 -34 -48 -7 0 -6 4 3 10 12 7 12 12 2 22 -14 14 -16 48 -2 48 6 0
10 19 10 41 0 36 -2 40 -15 29 -12 -10 -15 -10 -15 0 0 6 9 14 21 17 16 4 17
8 7 14 -9 6 -6 9 11 9 18 0 22 -4 16 -17 -12 -31 -22 -112 -13 -107 4 3 8 16
8 30 0 14 5 34 11 46 8 15 8 33 -1 66 -9 35 -8 47 1 53 7 4 16 6 21 3 4 -2 17
9 29 26 13 16 31 30 40 30 10 0 22 6 26 13 14 21 47 36 55 24 4 -6 4 -15 2
-19z m46 12 c0 -5 -4 -10 -10 -10 -5 0 -10 5 -10 10 0 6 5 10 10 10 6 0 10 -4
10 -10z m270 -15 c0 -8 -2 -15 -4 -15 -2 0 -6 7 -10 15 -3 8 -1 15 4 15 6 0
10 -7 10 -15z m210 -10 c14 -19 14 -19 -2 -6 -10 7 -18 18 -18 24 0 6 1 8 3 6
1 -2 9 -13 17 -24z m170 10 c-9 -11 -9 -15 -1 -15 8 0 8 -4 -1 -14 -15 -16
-18 -15 -22 11 -3 17 10 33 28 33 5 0 3 -7 -4 -15z m-1273 -33 c15 -16 35 -31
43 -34 8 -3 12 -9 8 -13 -13 -13 -87 44 -88 68 0 12 8 8 37 -21z m973 25 c0
-2 -10 -12 -22 -23 -14 -12 -18 -13 -10 -3 6 9 9 19 5 22 -3 4 1 7 10 7 10 0
17 -2 17 -3z m1520 -7 c0 -5 -4 -10 -10 -10 -5 0 -10 5 -10 10 0 6 5 10 10 10
6 0 10 -4 10 -10z m-793 -32 c-3 -7 -5 -2 -5 12 0 14 2 19 5 13 2 -7 2 -19 0
-25z m-560 8 c-3 -7 0 -19 6 -26 8 -9 9 -11 1 -7 -15 9 -38 -19 -31 -36 3 -8
-12 -31 -34 -52 -40 -38 -49 -40 -27 -5 15 24 4 37 -17 20 -13 -11 -14 -10 -9
4 3 9 10 17 15 17 5 1 13 2 18 3 13 2 52 47 62 74 5 12 11 22 15 22 3 0 4 -6
1 -14z m-139 -18 c-13 -10 -19 -18 -15 -18 5 0 1 -7 -7 -16 -9 -8 -16 -24 -16
-35 0 -11 -6 -22 -14 -25 -9 -3 -12 -12 -9 -21 4 -10 2 -14 -5 -9 -6 3 -14 1
-18 -5 -4 -8 -3 -9 4 -5 8 5 12 -1 12 -18 0 -21 16 -70 28 -86 2 -2 7 2 12 10
8 12 10 12 10 -3 0 -33 -34 -14 -56 30 -16 31 -24 39 -33 30 -8 -8 -11 -8 -11
1 0 16 -20 16 -20 0 -1 -15 -59 -82 -66 -76 -2 3 6 27 18 54 15 33 41 65 79
96 41 34 55 53 54 70 -2 24 24 44 58 44 15 0 15 -3 -5 -18z m309 0 c-3 -8 -6
-5 -6 6 -1 11 2 17 5 13 3 -3 4 -12 1 -19z m920 -10 c-3 -7 -5 -2 -5 12 0 14
2 19 5 13 2 -7 2 -19 0 -25z m129 5 c-3 -8 -6 -19 -6 -24 0 -6 -23 -9 -52 -7
-46 3 -53 6 -56 25 -3 18 0 20 20 15 13 -3 29 -12 37 -19 10 -11 16 -11 28 -2
7 7 12 18 9 25 -3 8 0 11 10 7 8 -3 13 -12 10 -20z m-1079 -10 c5 -14 -9 -16
-44 -7 -33 9 -28 20 9 19 17 0 33 -6 35 -12z m1253 10 c-1 -18 -18 -35 -24
-24 -4 6 -4 16 -1 21 7 12 25 13 25 3z m-305 -43 c1 -13 17 -30 25 -25 4 3 14
-3 21 -13 13 -16 13 -16 -5 -2 -11 8 -22 14 -25 14 -3 -1 -15 5 -26 12 -13 10
-15 14 -5 14 11 0 11 3 2 12 -7 7 -12 17 -12 23 1 9 24 -24 25 -35z m-425 20
c-8 -5 -19 -10 -25 -10 -5 0 -3 5 5 10 8 5 20 10 25 10 6 0 3 -5 -5 -10z
m-627 -20 c3 -11 13 -20 22 -20 9 0 13 -5 10 -10 -5 -8 -11 -7 -21 1 -20 17
-37 49 -26 49 6 0 12 -9 15 -20z m604 -16 c-3 -3 -15 -3 -27 1 -17 5 -19 10
-10 21 10 11 14 11 27 -2 9 -8 13 -17 10 -20z m-633 10 c3 -8 2 -12 -4 -9 -6
3 -10 10 -10 16 0 14 7 11 14 -7z m711 6 c-3 -5 -14 -10 -23 -10 -15 0 -15 2
-2 10 20 13 33 13 25 0z m686 -34 c-10 -11 -8 -15 6 -18 16 -3 15 -5 -4 -16
-21 -12 -23 -11 -23 11 0 25 7 37 23 37 5 0 4 -6 -2 -14z m114 -45 c-12 -11
-24 16 -18 39 l7 25 7 -30 c5 -16 6 -31 4 -34z m-2035 39 c0 -5 -5 -10 -11
-10 -5 0 -7 5 -4 10 3 6 8 10 11 10 2 0 4 -4 4 -10z m616 -19 c31 11 34 11 34
0 0 -5 -14 -11 -32 -15 -27 -5 -37 -2 -58 20 l-25 27 28 -21 c22 -17 34 -19
53 -11z m114 19 c0 -5 -8 -10 -17 -10 -15 0 -16 2 -3 10 19 12 20 12 20 0z
m890 -28 c0 -15 -2 -15 -10 -2 -13 20 -13 33 0 25 6 -3 10 -14 10 -23z m-102
-13 c-3 -8 -7 -3 -11 10 -4 17 -3 21 5 13 5 -5 8 -16 6 -23z m-2118 1 c-33
-26 -52 -25 -21 0 13 11 28 20 35 20 6 0 0 -9 -14 -20z m1307 -25 c-10 -10
-15 -8 -26 7 -12 17 -12 21 0 29 20 12 42 -18 26 -36z m65 23 c-7 -7 -12 -8
-12 -2 0 6 3 14 7 17 3 4 9 5 12 2 2 -3 -1 -11 -7 -17z m-786 -13 c-21 -16
-32 -13 -21 4 3 6 14 11 23 11 15 -1 15 -2 -2 -15z m649 5 c3 -5 1 -10 -4 -10
-6 0 -11 5 -11 10 0 6 2 10 4 10 3 0 8 -4 11 -10z m989 -47 c5 -14 3 -23 -3
-23 -6 0 -11 10 -12 23 0 21 -1 21 -9 2 -7 -16 -9 -17 -9 -3 -1 9 -9 25 -18
34 -17 17 -17 18 0 11 10 -4 17 -2 17 6 0 15 25 -22 34 -50z m-2274 27 c0 -5
-4 -10 -10 -10 -5 0 -10 5 -10 10 0 6 5 10 10 10 6 0 10 -4 10 -10z m2910 -20
c-8 -5 -17 -7 -19 -4 -3 3 1 9 9 14 8 5 17 7 19 4 3 -3 -1 -9 -9 -14z m-2881
-33 c0 -9 -2 -8 -6 1 -2 6 -10 9 -15 6 -7 -4 -8 -2 -4 5 9 13 26 5 25 -12z
m2078 1 c-3 -8 -6 -5 -6 6 -1 11 2 17 5 13 3 -3 4 -12 1 -19z m-1194 -3 c-3
-9 -8 -14 -10 -11 -3 3 -2 9 2 15 9 16 15 13 8 -4z m680 -2 c-7 -2 -13 -9 -13
-14 0 -6 4 -8 9 -4 6 3 15 -3 21 -14 14 -27 -3 -34 -42 -17 -16 7 -16 10 -1
32 8 13 20 24 27 23 7 0 6 -2 -1 -6z m-1043 -10 c-1 -5 -16 -18 -35 -30 -24
-15 -35 -18 -38 -9 -3 7 -2 18 1 23 11 16 72 30 72 16z m40 -3 c0 -5 -2 -10
-4 -10 -3 0 -8 5 -11 10 -3 6 -1 10 4 10 6 0 11 -4 11 -10z m780 0 c0 -5 -5
-10 -11 -10 -5 0 -7 5 -4 10 3 6 8 10 11 10 2 0 4 -4 4 -10z m808 -15 c-3 -3
-9 2 -12 12 -6 14 -5 15 5 6 7 -7 10 -15 7 -18z m124 -1 c2 -7 -1 -14 -6 -15
-5 -2 -11 7 -13 21 -3 24 12 19 19 -6z m-2575 -16 c-3 -7 -5 -2 -5 12 0 14 2
19 5 13 2 -7 2 -19 0 -25z m3290 0 c-3 -7 -5 -2 -5 12 0 14 2 19 5 13 2 -7 2
-19 0 -25z m-42 12 c-27 -12 -43 -12 -25 0 8 5 22 9 30 9 10 0 8 -3 -5 -9z
m-2617 -25 c15 -32 15 -35 1 -35 -5 0 -8 4 -4 9 3 5 -4 16 -15 24 -11 7 -17
17 -13 20 12 12 20 7 31 -18z m2542 10 c0 -10 -81 -45 -104 -45 -14 0 -29 -7
-34 -16 -7 -13 -13 -14 -28 -6 -18 11 -18 11 4 12 12 0 22 5 22 10 0 6 12 10
28 11 15 0 45 9 67 19 48 22 45 21 45 15z m-2444 -24 c14 -11 24 -23 24 -26
-1 -4 2 -10 6 -13 4 -4 5 -2 1 3 -3 6 -2 17 4 25 7 12 9 10 9 -7 0 -12 3 -30
6 -40 4 -13 3 -15 -4 -4 -8 10 -18 6 -51 -24 -40 -37 -45 -37 -42 -2 1 9 -3
17 -8 17 -6 0 -11 5 -11 11 0 8 4 8 13 0 11 -8 19 -5 37 14 13 14 20 28 16 32
-4 4 -11 1 -16 -7 -8 -12 -10 -9 -10 10 0 20 -2 22 -10 10 -5 -8 -10 -10 -10
-4 0 11 10 24 18 24 2 0 15 -9 28 -19z m131 -48 c8 -2 10 4 6 13 -4 12 -2 15
8 12 8 -2 15 -14 17 -25 2 -13 12 -23 27 -25 18 -4 22 -1 18 11 -5 13 -3 14 7
4 11 -10 10 -16 -5 -33 -10 -11 -15 -23 -12 -27 4 -3 7 -1 7 5 0 7 7 12 16 12
11 0 14 -6 9 -20 -4 -13 -2 -20 7 -21 7 0 0 -5 -15 -11 -23 -8 -32 -7 -48 8
-11 10 -19 12 -19 6 0 -7 -6 -12 -14 -12 -8 0 -18 -5 -22 -12 -4 -7 -3 -8 4
-4 7 4 12 2 12 -3 0 -6 -15 -11 -33 -11 -18 0 -39 -6 -46 -12 -10 -11 -10 -8
0 14 6 15 16 25 21 22 5 -3 7 -2 6 3 -1 4 7 27 19 50 19 38 19 42 4 49 -9 4
-20 6 -25 5 -5 -1 -4 4 2 11 6 8 9 25 6 39 -4 18 0 15 13 -11 10 -19 24 -36
30 -37z m2143 57 c0 -5 -5 -10 -11 -10 -5 0 -7 5 -4 10 3 6 8 10 11 10 2 0 4
-4 4 -10z m35 0 c-3 -5 -11 -10 -16 -10 -6 0 -7 5 -4 10 3 6 11 10 16 10 6 0
7 -4 4 -10z m-571 -16 c3 -8 2 -12 -4 -9 -6 3 -10 10 -10 16 0 14 7 11 14 -7z
m-554 -15 c0 -14 -17 -10 -23 5 -4 10 -1 13 9 9 7 -3 14 -9 14 -14z m-1472
-19 c-13 -40 -23 -45 -26 -13 -2 30 4 43 23 43 11 0 12 -6 3 -30z m107 20 c3
-5 -3 -10 -15 -10 -12 0 -18 5 -15 10 3 6 10 10 15 10 5 0 12 -4 15 -10z
m-665 -11 c0 -5 -4 -7 -10 -4 -16 10 -12 -21 5 -35 19 -15 19 -30 2 -30 -21 0
-40 49 -26 66 14 17 29 18 29 3z m2735 2 c3 -5 1 -12 -4 -15 -5 -3 -11 1 -15
9 -6 16 9 21 19 6z m-2045 -26 c10 -13 11 -18 1 -28 -10 -9 -12 -9 -9 3 2 9
-4 14 -14 14 -10 -1 -14 4 -11 12 7 18 18 18 33 -1z m-430 -5 c0 -5 -2 -10 -4
-10 -3 0 -8 5 -11 10 -3 6 -1 10 4 10 6 0 11 -4 11 -10z m2224 -6 c5 -14 4
-15 -9 -4 -17 14 -19 20 -6 20 5 0 12 -7 15 -16z m186 6 c0 -5 -2 -10 -4 -10
-3 0 -8 5 -11 10 -3 6 -1 10 4 10 6 0 11 -4 11 -10z m-2555 -10 c3 -5 1 -10
-4 -10 -6 0 -11 5 -11 10 0 6 2 10 4 10 3 0 8 -4 11 -10z m1305 0 c0 -5 -2
-10 -4 -10 -3 0 -8 5 -11 10 -3 6 -1 10 4 10 6 0 11 -4 11 -10z m212 -2 c-9
-9 -15 -9 -24 0 -9 9 -7 12 12 12 19 0 21 -3 12 -12z m888 2 c0 -5 -2 -10 -4
-10 -3 0 -8 5 -11 10 -3 6 -1 10 4 10 6 0 11 -4 11 -10z m-2000 -16 c0 -8 -5
-12 -10 -9 -6 4 -8 11 -5 16 9 14 15 11 15 -7z m265 -2 c-3 -3 -11 0 -18 7 -9
10 -8 11 6 5 10 -3 15 -9 12 -12z m140 8 c-3 -5 -1 -10 4 -10 6 0 11 -5 11
-11 0 -5 -4 -7 -10 -4 -10 6 -47 -10 -68 -32 -8 -7 -19 -10 -25 -6 -6 4 -8 0
-4 -10 4 -11 2 -14 -9 -10 -16 6 -20 33 -4 33 5 0 21 12 35 27 23 25 25 26 26
8 0 -19 1 -19 16 3 15 21 41 33 28 12z m993 -70 c5 -3 12 -14 15 -25 6 -16 3
-15 -13 5 -11 14 -20 28 -20 32 0 4 -7 5 -15 2 -22 -9 -18 -42 5 -49 21 -7 23
-18 11 -50 -7 -17 -8 -17 -15 8 -3 14 -15 35 -26 45 -18 17 -19 21 -6 31 10 9
12 19 7 34 -6 16 -4 25 8 34 14 10 18 6 29 -25 7 -20 16 -39 20 -42z m-1363
60 c-3 -5 -12 -10 -18 -10 -7 0 -6 4 3 10 19 12 23 12 15 0z m65 -6 c0 -8 -4
-12 -10 -9 -5 3 -10 10 -10 16 0 5 5 9 10 9 6 0 10 -7 10 -16z m484 2 c-3 -8
-1 -17 5 -21 6 -3 11 -1 11 5 0 6 5 8 11 5 13 -9 7 -15 -20 -20 -15 -3 -21 1
-21 14 0 10 3 21 7 24 10 11 13 8 7 -7z m132 -7 c6 -5 14 -6 18 -2 4 4 4 0 0
-10 -3 -10 -1 -17 6 -17 6 0 8 -4 5 -10 -6 -9 11 -14 43 -13 7 1 11 -4 9 -11
-2 -6 -10 -11 -18 -11 -8 -1 -13 -6 -12 -12 1 -6 -4 -14 -13 -17 -12 -4 -12
-2 -4 14 14 26 13 33 -4 27 -8 -3 -16 -2 -18 4 -2 5 -18 11 -37 14 -31 4 -80
35 -54 35 6 0 16 -6 23 -14 9 -12 17 -13 36 -4 25 12 24 23 -3 23 -9 0 -18 6
-20 13 -5 12 21 7 43 -9z m1414 5 c0 -8 -5 -12 -10 -9 -6 4 -8 11 -5 16 9 14
15 11 15 -7z m-2236 -18 c-4 -10 -24 -24 -45 -33 -22 -8 -39 -22 -39 -30 0
-12 -3 -13 -13 -4 -8 6 -16 8 -19 5 -3 -3 -9 -1 -12 5 -9 14 44 52 69 49 12
-1 30 5 40 15 20 21 28 17 19 -7z m86 3 c0 -5 -4 -9 -10 -9 -5 0 -10 7 -10 16
0 8 5 12 10 9 6 -3 10 -10 10 -16z m223 4 c-6 -16 -5 -17 12 -3 17 13 18 13
13 -1 -4 -9 -2 -21 3 -26 6 -6 4 -14 -6 -23 -19 -16 -20 -41 0 -34 8 4 12 10
9 15 -3 5 0 9 7 9 6 0 18 8 26 18 11 12 13 13 10 2 -2 -8 5 -21 17 -28 21 -13
21 -13 -2 -8 -20 4 -21 2 -10 -11 11 -14 10 -16 -15 -11 -23 5 -25 3 -15 -10
11 -13 10 -14 -8 -4 -16 8 -24 8 -33 -1 -10 -9 -15 -8 -25 6 -7 9 -25 17 -39
17 -14 0 -29 5 -32 10 -3 6 -16 10 -27 10 -11 0 -38 5 -59 12 -31 9 -39 16
-39 35 0 12 5 23 11 23 7 0 9 -9 6 -21 -4 -17 -3 -19 6 -10 13 13 51 15 43 2
-3 -5 0 -14 7 -20 10 -8 19 -7 32 3 11 8 25 12 32 9 7 -3 13 0 13 6 0 6 8 11
18 11 9 0 23 9 30 20 15 25 24 26 15 3z m2717 -11 c0 -15 -2 -15 -10 -2 -13
20 -13 33 0 25 6 -3 10 -14 10 -23z m-1846 9 c4 -5 -1 -8 -9 -7 -21 3 -31 16
-12 16 9 0 18 -4 21 -9z m1135 -51 c0 -13 -1 -13 -8 0 -5 8 -12 26 -15 40 l-7
25 15 -25 c9 -14 15 -32 15 -40z m-1947 28 c-6 -6 -16 -7 -22 -3 -9 6 -9 9 1
16 17 10 34 0 21 -13z m-879 -8 c-3 -11 -11 -20 -19 -20 -8 0 -11 6 -7 17 4
11 3 14 -5 9 -7 -4 -12 -2 -12 3 0 6 11 11 24 11 19 0 23 -4 19 -20z m971 -19
c3 -5 0 -11 -7 -14 -8 -3 -14 1 -14 9 0 16 13 19 21 5z m128 -13 c-7 -7 -12
-8 -12 -2 0 6 3 14 7 17 3 4 9 5 12 2 2 -3 -1 -11 -7 -17z m148 8 c0 -2 -7 -7
-16 -10 -8 -3 -12 -2 -9 4 6 10 25 14 25 6z m215 -6 c3 -5 -1 -10 -9 -10 -9 0
-16 5 -16 10 0 6 4 10 9 10 6 0 13 -4 16 -10z m1165 -9 c0 -4 -7 -8 -15 -8 -8
0 -15 6 -15 13 0 8 6 11 15 8 8 -4 15 -9 15 -13z m-1990 -1 c0 -5 -2 -10 -4
-10 -3 0 -8 5 -11 10 -3 6 -1 10 4 10 6 0 11 -4 11 -10z m-239 -27 c-8 -15
-10 -15 -11 -2 0 17 10 32 18 25 2 -3 -1 -13 -7 -23z m899 17 c0 -5 -4 -10
-10 -10 -5 0 -10 5 -10 10 0 6 5 10 10 10 6 0 10 -4 10 -10z m246 -6 c10 -8
13 -13 6 -9 -21 11 -69 17 -54 7 21 -14 4 -64 -18 -57 -13 4 -20 -1 -25 -15
-7 -22 -20 -26 -31 -8 -4 6 -3 8 4 4 6 -3 13 -2 17 4 3 5 1 10 -4 10 -6 0 -11
4 -11 10 0 5 7 6 17 3 11 -4 14 -3 9 5 -4 7 -1 15 8 18 9 3 16 10 16 15 0 4
-6 6 -14 3 -8 -3 -17 0 -22 7 -4 8 -3 10 4 5 7 -4 20 -2 29 3 26 15 46 13 69
-5z m78 -21 c6 2 11 -5 12 -17 0 -11 4 -30 9 -41 7 -16 4 -15 -13 5 -18 21
-21 22 -22 8 0 -10 4 -18 10 -18 5 0 7 -7 4 -15 -12 -30 -34 -16 -31 19 1 19
5 32 10 29 17 -10 5 27 -13 40 -11 8 -17 17 -13 20 3 4 13 -2 21 -14 8 -11 19
-18 26 -16z m1230 31 c9 -3 16 -12 16 -20 0 -17 -26 -8 -34 12 -6 16 -4 17 18
8z m-1709 -44 c-39 -26 -53 -26 -30 0 10 11 28 20 39 20 18 0 17 -3 -9 -20z
m909 -12 c-4 -6 -10 -5 -15 3 -14 22 -10 33 6 19 8 -7 12 -17 9 -22z m-1037 0
c-3 -8 -6 -5 -6 6 -1 11 2 17 5 13 3 -3 4 -12 1 -19z m556 4 c3 7 6 3 6 -10 1
-29 -32 -27 -38 3 -3 16 -1 17 12 7 12 -10 16 -10 20 0z m275 -17 c-3 -3 -9 2
-12 12 -6 14 -5 15 5 6 7 -7 10 -15 7 -18z m962 17 c0 -15 -11 -21 -27 -15
-12 5 -12 7 -1 14 17 11 28 11 28 1z m613 -7 c-3 -9 -8 -14 -10 -11 -3 3 -2 9
2 15 9 16 15 13 8 -4z m-288 -15 c-14 -15 -15 -20 -4 -21 15 0 -28 -21 -48
-23 -7 -1 -13 -4 -13 -8 0 -5 0 -12 0 -18 0 -5 7 -6 17 -3 11 4 14 3 9 -5 -8
-13 -48 -17 -43 -4 2 8 -6 12 -29 12 -8 0 -12 -5 -9 -10 4 -7 -3 -8 -22 -4
-15 4 -30 8 -32 10 -13 11 37 39 129 75 60 23 66 23 45 -1z m-1781 1 c3 -5 -1
-14 -8 -20 -12 -10 -13 -8 -9 8 6 23 9 25 17 12z m700 -16 c-7 -16 -24 -21
-24 -6 0 8 7 13 27 20 1 1 0 -6 -3 -14z m880 6 c3 -5 -1 -11 -9 -15 -9 -3 -15
0 -15 9 0 16 16 20 24 6z m-1790 -16 c3 -8 1 -15 -4 -15 -6 0 -10 7 -10 15 0
8 2 15 4 15 2 0 6 -7 10 -15z m-484 1 c0 -3 -4 -8 -10 -11 -5 -3 -10 -1 -10 4
0 6 5 11 10 11 6 0 10 -2 10 -4z m-565 -16 c-3 -5 -12 -10 -18 -10 -7 0 -6 4
3 10 19 12 23 12 15 0z m754 -29 c-2 -6 -10 2 -17 17 -11 25 -11 25 4 10 9 -9
15 -21 13 -27z m-38 -19 c-6 -2 -11 -9 -11 -17 0 -7 -7 -18 -15 -25 -10 -9
-15 -9 -15 -1 0 6 5 11 11 11 6 0 9 9 6 20 -3 11 -2 18 3 15 4 -3 11 5 15 18
7 21 7 21 12 2 3 -10 0 -21 -6 -23z m239 28 c0 -5 -4 -10 -10 -10 -5 0 -10 5
-10 10 0 6 5 10 10 10 6 0 10 -4 10 -10z m2617 4 c-3 -3 -12 -4 -19 -1 -8 3
-5 6 6 6 11 1 17 -2 13 -5z m-1566 -43 c-10 -7 -12 -22 -8 -60 4 -30 2 -51 -3
-51 -6 0 -11 7 -11 15 -3 28 -4 33 -11 41 -12 11 -9 26 3 18 7 -4 6 3 -2 17
-18 33 -21 55 -6 40 17 -17 27 -13 20 7 -5 16 -5 16 13 -1 16 -15 17 -19 5
-26z m1184 29 c-3 -5 -11 -10 -16 -10 -6 0 -7 5 -4 10 3 6 11 10 16 10 6 0 7
-4 4 -10z m-3303 -19 c-3 -9 -1 -12 6 -7 7 4 12 1 12 -9 0 -11 -5 -15 -15 -11
-19 7 -19 1 1 -19 15 -15 15 -18 2 -32 -14 -13 -16 -11 -22 24 -4 21 -9 46
-12 55 -4 12 1 16 14 15 13 -1 18 -6 14 -16z m1623 10 c3 -5 2 -12 -3 -15 -5
-3 -9 1 -9 9 0 17 3 19 12 6z m79 -37 c3 -8 10 -12 16 -9 5 3 10 -1 10 -9 0
-8 -4 -18 -10 -21 -5 -3 -10 -1 -10 4 0 6 -10 11 -22 10 -21 0 -21 -1 -4 -8
17 -7 18 -8 3 -14 -11 -4 -22 2 -31 15 -14 20 -14 22 7 34 30 17 34 16 41 -2z
m1724 -4 c-7 -11 -17 -20 -22 -20 -5 0 -1 9 9 20 10 11 20 20 22 20 2 0 -2 -9
-9 -20z m-3478 -20 c0 -5 -2 -10 -4 -10 -3 0 -8 5 -11 10 -3 6 -1 10 4 10 6 0
11 -4 11 -10z m836 -32 c10 -12 14 -18 8 -15 -7 4 -15 0 -18 -9 -4 -9 -9 -14
-13 -11 -3 4 0 13 7 22 8 9 8 15 2 15 -6 0 -14 -5 -18 -11 -4 -8 -9 -7 -16 2
-7 11 -9 9 -5 -6 6 -29 -14 -43 -54 -40 -19 1 -40 -2 -48 -8 -10 -9 -13 -7
-10 7 2 11 11 20 19 22 8 1 24 6 34 10 15 6 17 4 11 -7 -7 -11 -5 -11 10 1 17
14 18 13 12 -3 -4 -11 -3 -16 3 -12 6 3 10 15 10 25 0 17 23 39 41 40 3 0 14
-10 25 -22z m843 9 c6 -8 8 -17 4 -20 -3 -4 2 -9 11 -13 9 -3 16 -10 16 -16 0
-5 -4 -6 -10 -3 -5 3 -10 1 -10 -6 0 -7 -3 -9 -7 -6 -3 4 -12 2 -20 -4 -17
-15 -17 -8 2 27 17 33 12 42 -12 23 -16 -13 -17 -12 -5 3 10 13 10 17 0 21 -9
4 -8 6 3 6 9 1 22 -5 28 -12z m1672 -27 c-6 -32 -8 -33 -13 -11 -4 13 -1 29 5
36 16 17 17 16 8 -25z m-3476 20 c-3 -5 -10 -10 -16 -10 -5 0 -9 5 -9 10 0 6
7 10 16 10 8 0 12 -4 9 -10z m1468 -10 l21 -20 -32 11 c-18 6 -29 15 -26 20 8
13 12 11 37 -11z m172 -10 c3 -5 1 -10 -4 -10 -6 0 -11 5 -11 10 0 6 2 10 4
10 3 0 8 -4 11 -10z m-595 -11 c0 -5 5 -7 12 -3 7 4 8 3 4 -5 -4 -6 -13 -8
-19 -4 -7 4 -20 6 -29 5 -10 -2 -18 2 -18 7 0 6 11 11 25 11 14 0 25 -5 25
-11z m840 -4 c0 -8 -4 -15 -10 -15 -5 0 -10 7 -10 15 0 8 5 15 10 15 6 0 10
-7 10 -15z m-1191 -55 c1 -13 0 -13 -9 0 -5 8 -9 24 -9 35 l0 20 9 -20 c5 -11
9 -27 9 -35z m-554 30 c3 -5 1 -10 -4 -10 -6 0 -11 5 -11 10 0 6 2 10 4 10 3
0 8 -4 11 -10z m1425 -10 c0 -5 -2 -10 -4 -10 -3 0 -8 5 -11 10 -3 6 -1 10 4
10 6 0 11 -4 11 -10z m290 0 c0 -5 -4 -10 -10 -10 -5 0 -10 5 -10 10 0 6 5 10
10 10 6 0 10 -4 10 -10z m-805 -16 c-11 -8 -19 -19 -18 -24 2 -5 -11 -7 -28
-3 -29 6 -31 4 -24 -18 4 -13 6 -22 4 -19 -2 3 -12 14 -21 25 -17 20 -17 21
20 23 20 1 41 9 47 17 5 8 17 15 25 15 11 -1 10 -4 -5 -16z m571 4 c4 -6 3 -8
-4 -4 -6 3 -13 2 -17 -4 -3 -5 -1 -10 6 -10 7 0 10 -3 6 -6 -3 -3 -11 -3 -17
1 -8 5 -8 11 1 21 14 17 16 17 25 2z m-1511 -8 c3 -5 1 -10 -4 -10 -6 0 -11 5
-11 10 0 6 2 10 4 10 3 0 8 -4 11 -10z m1125 -1 c0 -6 9 -8 20 -4 11 3 20 3
20 -2 0 -5 -11 -10 -25 -11 -14 -1 -25 3 -25 8 0 5 -15 7 -32 5 -26 -4 -29 -3
-13 4 27 13 55 13 55 0z m-119 -9 c22 -13 25 -30 4 -30 -8 0 -19 9 -25 20 -12
23 -7 25 21 10z m189 -5 c-7 -9 -15 -13 -17 -11 -7 7 7 26 19 26 6 0 6 -6 -2
-15z m2860 -6 c0 -5 -4 -9 -10 -9 -5 0 -10 7 -10 16 0 8 5 12 10 9 6 -3 10
-10 10 -16z m-1865 1 c3 -5 2 -10 -4 -10 -5 0 -13 5 -16 10 -3 6 -2 10 4 10 5
0 13 -4 16 -10z m1208 -2 c2 -7 1 -23 -4 -35 -6 -15 -14 -20 -28 -16 -12 3
-21 8 -21 10 0 3 9 3 20 0 13 -3 20 0 20 9 0 8 -9 14 -20 14 -25 0 -26 17 -2
23 28 8 30 7 35 -5z m-3367 -37 c4 -14 11 -32 17 -38 6 -9 6 -13 -2 -13 -6 0
-13 11 -17 25 -5 21 -9 23 -25 14 -20 -10 -28 4 -9 16 5 3 7 12 3 20 -4 11 -1
13 11 9 9 -3 19 -18 22 -33z m1063 18 c-22 -14 -33 -10 -19 6 7 8 17 12 22 9
6 -4 5 -10 -3 -15z m371 11 c0 -5 -10 -10 -22 -10 -19 0 -20 2 -8 10 19 13 30
13 30 0z m-1401 -30 c11 -24 11 -24 -3 -6 -9 11 -16 24 -16 30 0 12 5 7 19
-24z m481 0 c0 -16 -4 -30 -10 -30 -5 0 -10 14 -10 30 0 17 5 30 10 30 6 0 10
-13 10 -30z m170 20 c0 -5 -2 -10 -4 -10 -3 0 -8 5 -11 10 -3 6 -1 10 4 10 6
0 11 -4 11 -10z m619 -16 c-9 -11 -15 -12 -23 -4 -8 8 -7 13 4 20 20 12 33 1
19 -16z m2975 13 c7 -7 19 -23 26 -36 11 -22 11 -23 -6 -16 -11 4 -27 10 -37
12 -11 4 -16 11 -13 20 3 8 6 19 6 24 0 13 9 11 24 -4z m-3476 -6 c10 -6 8
-10 -9 -14 -26 -7 -34 -3 -24 12 7 13 15 14 33 2z m468 -22 c13 -15 15 -22 6
-31 -8 -8 -12 -8 -12 -1 0 6 -11 13 -25 15 -13 3 -22 1 -19 -3 3 -5 -2 -6 -11
-3 -9 4 -14 13 -11 21 3 8 6 18 6 22 0 14 48 -1 66 -20z m879 2 c2 -11 -1 -21
-7 -21 -5 0 -8 7 -5 14 4 10 1 13 -9 9 -7 -3 -14 -1 -14 5 0 9 21 22 28 17 1
-1 4 -12 7 -24z m-780 9 c-3 -5 -10 -10 -16 -10 -5 0 -9 5 -9 10 0 6 7 10 16
10 8 0 12 -4 9 -10z m40 -1 c11 -17 -1 -21 -15 -4 -8 9 -8 15 -2 15 6 0 14 -5
17 -11z m-75 -9 c0 -5 -5 -10 -11 -10 -5 0 -7 5 -4 10 3 6 8 10 11 10 2 0 4
-4 4 -10z m-484 -25 c18 -14 17 -15 -8 -6 -23 9 -28 7 -33 -10 -4 -11 -9 -18
-12 -16 -6 7 15 47 25 47 5 0 17 -7 28 -15z m334 5 c0 -5 -14 -10 -31 -10 -17
0 -28 4 -24 10 3 6 17 10 31 10 13 0 24 -4 24 -10z m2498 -15 c-3 -3 -9 2 -12
12 -6 14 -5 15 5 6 7 -7 10 -15 7 -18z m386 10 c-4 -8 -7 -15 -9 -15 -2 0 -5
7 -9 15 -3 9 0 15 9 15 9 0 12 -6 9 -15z m-3340 -17 c22 -30 20 -46 -1 -21
-10 11 -27 25 -38 31 -20 11 -20 11 2 12 12 0 29 -10 37 -22z m3011 12 c18 -8
17 -9 -7 -9 -16 -1 -28 4 -28 9 0 12 8 12 35 0z m-2425 -26 c0 -16 -16 -19
-25 -4 -8 13 4 32 16 25 5 -4 9 -13 9 -21z m777 9 c5 3 15 2 23 -4 12 -7 10
-9 -7 -9 -13 0 -26 0 -30 -1 -5 0 -9 8 -11 18 -2 14 -1 15 6 4 6 -7 14 -11 19
-8z m-1177 3 c0 -11 -19 -15 -25 -6 -3 5 1 10 9 10 9 0 16 -2 16 -4z m720 -6
c0 -5 -2 -10 -4 -10 -3 0 -8 5 -11 10 -3 6 -1 10 4 10 6 0 11 -4 11 -10z
m2443 -6 c-3 -9 0 -19 6 -24 9 -5 6 -9 -8 -13 -24 -6 -30 20 -9 41 16 16 19
15 11 -4z m-4099 -10 c5 -14 4 -15 -9 -4 -17 14 -19 20 -6 20 5 0 12 -7 15
-16z m391 6 c-3 -5 -12 -10 -18 -10 -7 0 -6 4 3 10 19 12 23 12 15 0z m415 6
c0 -2 -7 -9 -15 -16 -12 -10 -15 -10 -15 4 0 9 7 16 15 16 8 0 15 -2 15 -4z
m395 -6 c3 -5 1 -10 -4 -10 -6 0 -11 5 -11 10 0 6 2 10 4 10 3 0 8 -4 11 -10z
m181 -17 c-10 -10 -19 5 -10 18 6 11 8 11 12 0 2 -7 1 -15 -2 -18z m-356 6
c12 -8 9 -9 -10 -4 -21 5 -22 4 -7 -5 9 -6 15 -15 12 -20 -8 -13 -35 -1 -35
15 0 8 -10 16 -22 18 -15 3 -11 5 12 5 19 1 42 -3 50 -9z m610 2 c0 -5 -7 -12
-16 -15 -14 -5 -15 -4 -4 9 14 17 20 19 20 6z m2396 -28 c-3 -6 2 -19 9 -30 8
-10 15 -22 15 -28 0 -5 -7 1 -16 13 -8 12 -21 22 -29 22 -21 0 -35 31 -21 45
13 15 49 -3 42 -22z m-2729 12 c0 -8 -6 -15 -14 -15 -17 0 -17 17 0 23 6 3 12
6 13 6 0 1 1 -6 1 -14z m823 5 c0 -5 -5 -10 -11 -10 -5 0 -7 5 -4 10 3 6 8 10
11 10 2 0 4 -4 4 -10z m1490 -5 c-7 -8 -20 -15 -28 -15 -13 0 -12 3 4 15 25
19 40 19 24 0z m164 4 c-3 -6 -15 -9 -25 -6 -11 3 -19 1 -19 -4 0 -4 -8 -5
-17 -2 -15 6 -15 7 3 14 30 12 66 11 58 -2z m176 1 c0 -5 -5 -10 -11 -10 -5 0
-7 5 -4 10 3 6 8 10 11 10 2 0 4 -4 4 -10z m-3120 -31 c0 -5 -6 -6 -13 -3 -8
3 -14 11 -14 19 0 11 4 12 14 4 7 -6 13 -15 13 -20z m140 21 c0 -5 -4 -10 -10
-10 -5 0 -10 5 -10 10 0 6 5 10 10 10 6 0 10 -4 10 -10z m282 -4 c7 5 8 2 4
-5 -5 -7 -14 -10 -20 -8 -7 3 -18 -4 -24 -14 -7 -10 -17 -19 -23 -19 -6 0 2
14 18 30 15 17 29 26 31 20 2 -6 9 -7 14 -4z m2085 -11 c-4 -8 -13 -15 -22
-15 -13 0 -12 3 2 20 19 22 29 19 20 -5z m-2203 8 c3 -4 -6 -12 -21 -19 l-28
-12 25 -10 c22 -9 23 -11 5 -11 -21 -1 -45 16 -45 32 0 4 4 6 9 2 6 -3 16 1
23 9 15 17 22 19 32 9z m772 -5 c4 -6 3 -13 -3 -15 -6 -2 -9 -17 -7 -32 4 -20
0 -30 -12 -35 -23 -9 -28 -2 -14 24 10 18 8 24 -7 36 -16 12 -16 15 -3 24 20
13 37 13 46 -2z m1254 -13 c-47 -25 -85 -31 -94 -16 -4 5 13 12 36 16 24 4 50
11 58 16 8 5 22 8 30 8 8 0 -5 -11 -30 -24z m-1065 -15 c-19 -36 -19 -40 0
-40 8 0 15 -4 15 -9 0 -5 -7 -11 -15 -15 -9 -3 -15 0 -15 9 0 8 -3 15 -7 15
-16 -1 -43 -28 -43 -44 0 -20 -3 -20 -43 0 -32 17 -32 16 -14 -3 20 -23 23
-48 5 -37 -10 6 -10 4 0 -7 18 -20 15 -32 -8 -26 -11 3 -20 1 -20 -4 0 -4 -7
-6 -15 -3 -22 9 -18 33 8 44 12 5 16 9 8 9 -8 1 -11 4 -8 8 4 3 2 12 -4 20 -6
7 -8 13 -4 13 5 0 1 8 -9 19 -15 17 -15 19 0 32 9 7 21 14 28 15 6 1 20 5 31
9 18 7 18 6 3 -6 -12 -11 -14 -20 -7 -38 l10 -25 15 22 c8 12 21 19 30 15 17
-6 54 23 54 44 0 7 5 13 10 13 6 0 4 -13 -5 -30z m-1274 -10 c5 0 9 -4 9 -10
0 -17 -35 -11 -47 9 -15 24 -5 35 14 16 8 -8 19 -15 24 -15z m2459 14 c0 -2
-12 -4 -27 -4 -21 0 -24 3 -14 9 13 8 41 5 41 -5z m-1980 -4 c0 -5 -5 -10 -11
-10 -5 0 -7 5 -4 10 3 6 8 10 11 10 2 0 4 -4 4 -10z m560 -25 c0 -3 -9 -1 -20
5 -11 6 -18 15 -15 21 6 9 35 -12 35 -26z m-907 18 c-7 -2 -19 -2 -25 0 -7 3
-2 5 12 5 14 0 19 -2 13 -5z m2392 -3 c-3 -5 -12 -10 -18 -10 -7 0 -6 4 3 10
19 12 23 12 15 0z m325 -36 c0 -19 -4 -34 -9 -34 -10 0 -23 58 -15 71 11 18
24 -2 24 -37z m-1970 21 c-7 -9 -15 -13 -17 -11 -7 7 7 26 19 26 6 0 6 -6 -2
-15z m1816 -17 c-1 -17 -6 -33 -12 -35 -7 -2 -10 6 -7 20 3 14 0 28 -6 31 -6
4 -11 0 -11 -8 0 -21 -16 -21 -24 0 -3 8 -2 12 3 9 5 -3 12 -1 16 5 3 5 14 10
24 10 15 0 18 -7 17 -32z m-2616 12 c13 -8 13 -10 -2 -10 -9 0 -20 5 -23 10
-8 13 5 13 25 0z m630 -10 c0 -5 -7 -10 -16 -10 -8 0 -12 5 -9 10 3 6 10 10
16 10 5 0 9 -4 9 -10z m-146 -15 c-6 -16 -24 -21 -24 -7 0 11 11 22 21 22 5 0
6 -7 3 -15z m-373 -11 c17 -8 29 -18 26 -20 -8 -8 -56 7 -68 22 -16 19 3 19
42 -2z m914 6 c3 -5 -1 -10 -10 -10 -9 0 -13 5 -10 10 3 6 8 10 10 10 2 0 7
-4 10 -10z m1338 3 c-7 -2 -19 -2 -25 0 -7 3 -2 5 12 5 14 0 19 -2 13 -5z
m317 -3 c0 -5 -5 -10 -11 -10 -5 0 -7 5 -4 10 3 6 8 10 11 10 2 0 4 -4 4 -10z
m-2272 -45 c20 -15 21 -15 17 2 -3 10 0 8 6 -5 19 -36 -3 -49 -35 -21 -41 36
-32 54 12 24z m-1038 -5 c0 -5 -5 -10 -11 -10 -5 0 -7 5 -4 10 3 6 8 10 11 10
2 0 4 -4 4 -10z m1559 -11 c-14 -8 -29 -3 -29 11 0 4 9 6 21 3 15 -4 17 -8 8
-14z m-1209 1 c0 -5 -7 -7 -15 -4 -8 4 -15 8 -15 10 0 2 7 4 15 4 8 0 15 -4
15 -10z m1248 -16 c0 -15 -4 -22 -10 -16 -5 5 -6 16 -2 25 9 23 12 21 12 -9z
m42 6 c0 -11 -4 -20 -9 -20 -5 0 -7 9 -4 20 3 11 7 20 9 20 2 0 4 -9 4 -20z
m-245 0 c3 -5 2 -10 -4 -10 -5 0 -13 5 -16 10 -3 6 -2 10 4 10 5 0 13 -4 16
-10z m58 -5 c-3 -9 -8 -14 -10 -11 -3 3 -2 9 2 15 9 16 15 13 8 -4z m-153 -4
c0 -6 -5 -13 -11 -17 -6 -3 -9 -15 -6 -25 3 -11 -3 -29 -13 -42 l-19 -22 -16
23 c-9 12 -26 32 -38 43 l-22 20 30 -11 c16 -6 35 -16 42 -21 9 -8 14 -4 19
18 4 15 9 31 11 36 6 10 23 9 23 -2z m2628 -21 c47 -12 59 -28 44 -57 -9 -16
-19 -18 -63 -13 -48 4 -55 8 -64 34 -7 22 -7 30 3 34 6 2 9 8 6 14 -4 6 1 8
12 5 11 -3 38 -11 62 -17z m-3603 1 c3 -5 1 -12 -4 -15 -5 -3 -11 1 -15 9 -6
16 9 21 19 6z m3445 -9 c0 -9 -9 -23 -21 -30 -21 -13 -21 -13 -3 17 21 36 24
37 24 13z m-2430 -12 c13 -8 13 -10 -2 -10 -9 0 -20 5 -23 10 -8 13 5 13 25 0z
m-1063 -22 c-3 -8 -6 -5 -6 6 -1 11 2 17 5 13 3 -3 4 -12 1 -19z m1293 6 c0
-8 -5 -12 -10 -9 -6 4 -8 11 -5 16 9 14 15 11 15 -7z m-1420 -9 c11 -13 10
-14 -5 -9 -14 6 -16 4 -10 -6 5 -9 4 -11 -4 -6 -6 4 -9 12 -6 17 4 5 -1 9 -9
9 -8 0 -17 -4 -20 -9 -3 -4 -18 -7 -33 -5 -16 2 -22 1 -15 -2 6 -3 12 -10 12
-15 0 -6 -11 -2 -24 8 l-24 18 26 6 c50 12 99 9 112 -6z m1373 -17 c16 -19 17
-19 17 -2 0 16 2 16 10 4 6 -9 5 -17 -3 -22 -16 -10 10 -28 30 -21 7 3 13 1
13 -5 0 -6 10 -8 23 -4 20 5 21 4 8 -11 -15 -19 -66 -23 -77 -5 -5 7 -3 8 6 3
9 -5 11 -4 6 3 -4 7 -15 8 -29 3 -25 -9 -47 -4 -47 11 0 7 4 7 13 0 8 -7 15
-6 23 2 17 18 -17 62 -40 53 -11 -5 -15 -3 -10 5 5 8 2 9 -9 5 -10 -3 -17 -2
-17 4 0 17 63 0 83 -23z m-712 9 c21 -16 41 -55 31 -61 -4 -2 -22 13 -40 35
-31 37 -26 53 9 26z m-55 -47 c8 -7 14 -17 14 -23 0 -5 -9 -2 -20 8 -11 10
-19 29 -19 44 2 23 2 23 6 4 2 -12 11 -27 19 -33z m1181 8 c-3 -7 -5 -2 -5 12
0 14 2 19 5 13 2 -7 2 -19 0 -25z m1407 -3 c18 -14 14 -36 -7 -34 -9 0 -8 2 1
6 19 7 4 23 -23 23 -14 0 -29 8 -35 20 -9 18 -8 18 17 9 16 -5 36 -16 47 -24z
m-3014 15 c0 -5 -5 -10 -11 -10 -5 0 -7 5 -4 10 3 6 8 10 11 10 2 0 4 -4 4
-10z m2795 0 c3 -5 12 -7 20 -4 10 4 12 -1 9 -18 -5 -21 -4 -21 13 5 20 31 35
34 54 10 10 -11 10 -14 2 -9 -7 4 -13 2 -13 -3 0 -6 -9 -20 -20 -31 -11 -11
-20 -29 -20 -40 0 -19 -29 -41 -62 -47 -23 -4 -68 14 -68 26 0 10 21 8 53 -4
12 -5 17 -3 15 6 -2 8 4 13 15 13 23 -2 22 8 -3 24 -18 11 -20 10 -20 -8 0
-11 -4 -20 -8 -20 -4 0 -6 16 -4 35 5 41 8 42 31 13 12 -15 20 -18 25 -10 4 7
3 12 -3 12 -5 0 -11 10 -13 23 -2 14 -9 21 -21 21 -9 -1 -17 2 -17 7 0 12 27
11 35 -1z m-3011 -25 c14 -13 26 -28 26 -33 0 -15 -29 -23 -36 -10 -4 7 -3 8
4 4 7 -4 12 -4 12 1 -1 14 -27 43 -39 43 -6 0 -11 5 -11 10 0 17 16 11 44 -15z
m128 -6 c-12 -5 -22 -14 -22 -21 0 -9 3 -9 10 2 8 12 10 11 10 -7 0 -16 -5
-20 -20 -16 -38 10 -20 -16 38 -54 31 -20 60 -43 64 -49 4 -6 18 -14 30 -18
24 -6 57 -46 38 -46 -6 0 -13 7 -17 16 -5 15 -50 39 -65 36 -5 -1 -8 2 -8 7 0
5 -21 22 -47 37 -27 15 -55 37 -63 48 -15 21 -22 58 -10 51 4 -3 17 4 30 15
12 10 29 16 37 13 13 -5 12 -8 -5 -14z m1191 -44 c15 -28 -17 -15 -63 25 l-45
39 50 -25 c27 -13 53 -31 58 -39z m1840 4 c-6 -6 -9 -1 -7 13 3 33 6 36 11 14
3 -10 1 -22 -4 -27z m-1497 4 c-10 -10 -19 5 -10 18 6 11 8 11 12 0 2 -7 1
-15 -2 -18z m-1156 7 c0 -5 -4 -10 -10 -10 -5 0 -10 5 -10 10 0 6 5 10 10 10
6 0 10 -4 10 -10z m890 -15 c0 -13 -4 -14 -20 -5 -11 6 -20 13 -20 15 0 3 9 5
20 5 11 0 20 -7 20 -15z m1840 5 c0 -5 -4 -10 -10 -10 -5 0 -10 5 -10 10 0 6
5 10 10 10 6 0 10 -4 10 -10z m-3032 -23 c2 -9 -2 -17 -8 -17 -6 0 -9 4 -6 9
4 5 -3 7 -14 4 -11 -3 -20 -1 -20 4 0 28 43 29 48 0z m2762 17 c0 -8 -19 -13
-24 -6 -3 5 1 9 9 9 8 0 15 -2 15 -3z m120 2 c0 -3 -4 -8 -10 -11 -5 -3 -10
-1 -10 4 0 6 5 11 10 11 6 0 10 -2 10 -4z m-1284 -28 c-10 -6 -20 -7 -24 -3
-9 8 20 25 31 18 5 -3 2 -10 -7 -15z m1423 -5 c-2 -32 -15 -68 -21 -58 -8 14
2 75 13 75 5 0 9 -8 8 -17z m391 7 c0 -5 -4 -10 -10 -10 -5 0 -10 5 -10 10 0
6 5 10 10 10 6 0 10 -4 10 -10z m134 -55 c-8 -40 -8 -36 0 -67 13 -44 0 -76
-33 -83 -16 -3 -37 -15 -46 -25 -21 -23 -47 -19 -90 15 -36 27 -55 67 -36 73
6 2 9 7 6 12 -7 11 52 60 71 60 9 0 24 -5 35 -11 16 -8 19 -17 14 -39 -4 -17
-2 -31 6 -36 7 -4 10 -3 5 4 -3 6 2 15 11 21 10 6 14 11 9 11 -6 0 -1 6 9 14
16 12 17 16 6 30 -7 9 -18 16 -24 16 -15 0 -47 31 -47 46 0 19 41 22 78 5 29
-14 32 -18 26 -46z m-3447 41 c-4 -9 2 -17 14 -21 10 -4 19 -12 19 -20 0 -14
-16 -15 -37 -2 -8 5 -13 3 -13 -4 0 -10 -3 -10 -12 -1 -9 9 -8 17 2 37 14 26
36 35 27 11z m2583 -1 c-7 -8 -17 -12 -23 -8 -6 4 -3 9 9 14 27 11 28 11 14
-6z m-1296 -1 c23 -9 20 -23 -4 -17 -14 4 -20 0 -20 -11 0 -9 -5 -16 -11 -16
-5 0 -8 3 -6 8 2 4 7 15 10 25 7 19 9 20 31 11z m-114 -98 c36 -32 73 -72 83
-90 11 -20 17 -25 17 -13 0 19 15 23 25 7 3 -5 2 -10 -3 -10 -11 0 -35 -50
-24 -50 4 -1 21 -12 37 -26 18 -15 23 -22 11 -18 -13 5 -17 4 -12 -4 4 -7 2
-12 -3 -12 -6 0 -11 9 -11 20 0 11 -4 20 -10 20 -5 0 -6 -7 -3 -17 4 -11 3
-14 -6 -9 -7 5 -10 14 -7 21 2 7 1 16 -4 21 -4 5 -13 27 -20 49 -9 28 -37 63
-95 120 -89 87 -78 83 25 -9z m1430 91 c0 -2 -10 -12 -22 -23 l-23 -19 19 23
c18 21 26 27 26 19z m-1160 -32 c0 -1 -7 -8 -15 -15 -13 -10 -15 -9 -15 8 0
15 5 20 15 16 8 -4 15 -7 15 -9z m1744 7 c9 -14 -10 -33 -27 -26 -13 5 -14 9
-4 20 14 15 24 17 31 6z m-4409 -12 c3 -5 2 -10 -4 -10 -5 0 -13 5 -16 10 -3
6 -2 10 4 10 5 0 13 -4 16 -10z m2625 0 c0 -5 -4 -10 -10 -10 -5 0 -10 5 -10
10 0 6 5 10 10 10 6 0 10 -4 10 -10z m800 -12 c0 -10 -4 -18 -9 -18 -5 0 -11
8 -13 18 -3 11 0 19 8 19 8 0 14 -9 14 -19z m-2090 -8 c0 -5 -5 -10 -11 -10
-5 0 -7 5 -4 10 3 6 8 10 11 10 2 0 4 -4 4 -10z m2775 0 c-3 -5 -11 -10 -16
-10 -6 0 -7 5 -4 10 3 6 11 10 16 10 6 0 7 -4 4 -10z m-2811 -39 c-4 -17 -9
-30 -11 -27 -3 2 -2 19 2 36 9 41 17 33 9 -9z m113 16 c6 -6 -20 -11 -40 -8
-5 1 -5 -3 -2 -9 4 -6 14 -9 24 -5 13 5 13 4 4 -6 -10 -10 -17 -9 -33 6 -11
10 -20 21 -20 24 0 8 58 6 67 -2z m61 -29 c-4 -26 -34 -33 -34 -8 0 10 6 16
13 13 7 -3 13 0 13 6 0 6 3 11 6 11 3 0 4 -10 2 -22z m-202 -25 c3 -10 12 -30
20 -45 13 -24 13 -26 -4 -21 -19 4 -47 83 -30 83 5 0 11 -8 14 -17z m254 -5
c0 -6 -6 -5 -15 2 -8 7 -15 14 -15 16 0 2 7 1 15 -2 8 -4 15 -11 15 -16z
m1960 1 c24 -20 24 -21 5 -35 -24 -18 -36 -18 -60 0 -19 14 -19 15 -1 35 23
26 25 26 56 0z m-976 3 c3 -5 -1 -9 -9 -9 -8 0 -15 4 -15 9 0 4 4 8 9 8 6 0
12 -4 15 -8z m721 -109 c6 -66 3 -72 -21 -49 -16 17 -18 36 -3 36 6 0 8 24 5
68 -4 52 -3 60 4 37 6 -16 13 -58 15 -92z m-735 77 c0 -5 -2 -10 -4 -10 -3 0
-8 5 -11 10 -3 6 -1 10 4 10 6 0 11 -4 11 -10z m-2430 -10 c0 -5 -2 -10 -4
-10 -3 0 -8 5 -11 10 -3 6 -1 10 4 10 6 0 11 -4 11 -10z m1450 -10 c0 -5 -2
-10 -4 -10 -3 0 -8 5 -11 10 -3 6 -1 10 4 10 6 0 11 -4 11 -10z m1120 0 c0 -5
-4 -10 -10 -10 -5 0 -10 5 -10 10 0 6 5 10 10 10 6 0 10 -4 10 -10z m717 -42
c-2 -13 -4 -5 -4 17 -1 22 1 32 4 23 2 -10 2 -28 0 -40z m450 27 c19 -8 50
-15 67 -15 17 0 38 -5 46 -10 28 -17 -93 2 -130 21 -43 22 -33 25 17 4z
m-2224 -8 c-2 -4 -5 -7 -8 -7 -3 0 -9 0 -15 0 -5 0 -10 4 -10 9 0 5 8 8 18 7
9 -2 16 -6 15 -9z m982 -7 c8 -13 -5 -13 -25 0 -13 8 -13 10 2 10 9 0 20 -4
23 -10z m-925 -4 c0 -3 -4 -8 -10 -11 -5 -3 -10 -1 -10 4 0 6 5 11 10 11 6 0
10 -2 10 -4z m2698 -32 c20 12 13 -10 -8 -29 -20 -18 -20 -18 -18 6 2 15 -2
23 -9 22 -7 -2 -10 4 -6 12 5 14 7 13 18 -1 6 -9 17 -14 23 -10z m-2658 -18
c0 -3 -4 -8 -10 -11 -5 -3 -10 -1 -10 4 0 6 5 11 10 11 6 0 10 -2 10 -4z
m-534 -35 c13 -10 21 -21 17 -24 -3 -4 0 -13 7 -22 10 -12 9 -15 -6 -15 -20 0
-77 63 -67 74 11 10 24 7 49 -13z m401 -1 c35 -19 38 -19 45 -3 6 17 7 17 7 0
1 -12 5 -16 14 -11 6 4 3 -3 -8 -15 -11 -12 -21 -18 -23 -12 -2 6 -10 11 -18
11 -8 0 -26 11 -40 25 -30 30 -26 31 23 5z m2744 -33 c-10 -9 -11 -8 -5 6 3
10 9 15 12 12 3 -3 0 -11 -7 -18z m-4230 -20 c-10 -9 -11 -8 -5 6 3 10 9 15
12 12 3 -3 0 -11 -7 -18z m3174 -28 c1 -19 -3 -37 -9 -41 -7 -5 -7 -8 2 -8 7
0 10 -4 7 -10 -15 -24 -25 -6 -25 46 0 62 22 74 25 13z m-90 13 c-3 -3 -11 0
-18 7 -9 10 -8 11 6 5 10 -3 15 -9 12 -12z m-1714 -15 c-10 -9 -11 -8 -5 6 3
10 9 15 12 12 3 -3 0 -11 -7 -18z m115 -14 c-7 -7 -26 7 -26 19 0 6 6 6 15 -2
9 -7 13 -15 11 -17z m576 5 c-7 -7 -12 -8 -12 -2 0 14 12 26 19 19 2 -3 -1
-11 -7 -17z m2251 9 c-3 -5 -12 -6 -20 -3 -11 4 -13 2 -9 -9 3 -8 1 -15 -4
-15 -10 0 -14 23 -5 31 8 9 44 5 38 -4z m-2667 -53 c-3 -8 1 -17 9 -20 15 -6
21 -24 8 -24 -22 1 -35 21 -39 61 -5 43 -5 43 11 21 9 -13 14 -30 11 -38z
m-314 24 c-7 -7 -12 -8 -12 -2 0 14 12 26 19 19 2 -3 -1 -11 -7 -17z m94 -1
c1 -9 -1 -19 -6 -22 -12 -7 -33 22 -25 35 9 15 28 7 31 -13z m265 14 c-7 -5
-10 -14 -7 -20 4 -6 0 -11 -8 -11 -9 0 -16 4 -16 8 0 12 22 32 35 32 5 0 4 -4
-4 -9z m451 -43 c-7 -7 -12 -8 -12 -2 0 14 12 26 19 19 2 -3 -1 -11 -7 -17z
m263 -8 c10 -16 -12 -47 -44 -60 -17 -7 -33 -20 -36 -30 -6 -20 -42 -33 -51
-19 -3 5 0 9 6 9 11 0 62 54 61 65 -1 9 34 43 46 44 6 1 15 -3 18 -9z m2009 2
c3 -5 -1 -9 -9 -9 -8 0 -15 4 -15 9 0 4 4 8 9 8 6 0 12 -4 15 -8z m-2229 -32
c8 -16 15 -35 15 -42 0 -7 -9 4 -20 25 -21 38 -23 47 -15 47 2 0 11 -13 20
-30z m995 -11 c-8 -15 -7 -17 5 -13 8 4 15 1 15 -5 0 -6 -6 -11 -12 -11 -9 0
-8 -4 2 -10 13 -8 12 -10 -2 -10 -10 0 -18 -4 -18 -9 0 -5 8 -12 18 -14 13 -4
11 -5 -6 -6 -28 -1 -46 38 -32 73 5 13 6 26 3 29 -3 3 4 3 16 0 17 -4 19 -9
11 -24z m-1093 -21 c-3 -8 -6 -5 -6 6 -1 11 2 17 5 13 3 -3 4 -12 1 -19z m29
-13 c-1 -41 -16 -48 -16 -7 0 24 7 42 15 42 1 0 1 -16 1 -35z m2319 7 c-2 -3
2 -11 10 -18 11 -11 11 -21 3 -44 -10 -30 -22 -38 -32 -22 -3 5 -22 6 -43 3
-28 -5 -47 -2 -70 12 -38 22 -38 21 -15 53 15 22 23 24 84 22 37 -1 65 -4 63
-6z m-1140 -60 c-3 -3 -11 0 -18 7 -9 10 -8 11 6 5 10 -3 15 -9 12 -12z m104
-19 c0 -11 -3 -13 -6 -5 -2 6 -10 9 -15 6 -7 -4 -8 -2 -4 4 11 18 26 14 25 -5z
m65 -18 c-4 -8 -14 -15 -23 -15 -14 1 -13 3 3 15 25 19 27 19 20 0z m517 -22
c-12 -20 -14 -14 -5 12 4 9 9 14 11 11 3 -2 0 -13 -6 -23z m-651 -9 c0 -8 -62
-35 -68 -30 -3 3 0 6 7 6 7 0 9 5 6 10 -4 7 -13 6 -26 -1 -17 -9 -18 -13 -7
-27 10 -12 10 -14 1 -8 -7 4 -13 3 -13 -3 0 -10 -38 -27 -52 -23 -5 1 -8 -2
-8 -8 0 -13 -21 -13 -40 0 -13 9 -11 13 10 31 23 20 25 20 38 2 13 -17 14 -17
8 3 -7 22 16 50 32 41 4 -3 14 -2 22 3 13 8 90 12 90 4z m-861 -46 c-7 -13
-12 -35 -11 -50 2 -18 -3 -28 -15 -31 -52 -14 -72 -16 -78 -7 -4 6 7 10 27 10
42 0 60 12 52 33 -3 10 1 28 10 42 20 31 31 33 15 3z m-2119 -33 c0 -8 -4 -15
-8 -15 -5 0 -9 7 -9 15 0 8 4 15 9 15 4 0 8 -7 8 -15z m2515 -26 c11 -16 1
-19 -13 -3 -7 8 -8 14 -3 14 5 0 13 -5 16 -11z m-659 -30 c19 -37 7 -55 -23
-34 -21 15 -24 29 -10 53 12 17 15 16 33 -19z m339 21 c-27 -12 -43 -12 -25 0
8 5 22 9 30 9 10 0 8 -3 -5 -9z m-33 -34 c7 4 9 3 5 -1 -4 -5 3 -15 15 -22 33
-18 3 -16 -32 2 -17 9 -30 20 -30 26 0 8 5 8 15 -1 8 -6 20 -8 27 -4z m458
-530 c0 -3 -4 -8 -10 -11 -5 -3 -10 -1 -10 4 0 6 5 11 10 11 6 0 10 -2 10 -4z
m-761 -51 c14 -8 14 -25 1 -25 -13 0 -41 56 -32 64 3 4 9 -2 13 -13 4 -10 12
-22 18 -26z"/>
<path d="M3655 3590 c3 -5 11 -10 16 -10 6 0 7 5 4 10 -3 6 -11 10 -16 10 -6
0 -7 -4 -4 -10z"/>
<path d="M3530 3582 c0 -6 12 -13 28 -16 15 -4 34 -9 42 -11 10 -3 16 2 16 13
0 15 -9 19 -43 21 -24 1 -43 -2 -43 -7z"/>
<path d="M3935 3400 c-3 -5 -1 -10 4 -10 6 0 11 5 11 10 0 6 -2 10 -4 10 -3 0
-8 -4 -11 -10z"/>
<path d="M3080 3297 c0 -3 18 -25 41 -49 35 -38 41 -28 7 12 -17 20 -48 44
-48 37z"/>
<path d="M3040 3255 c0 -2 10 -10 23 -16 20 -11 21 -11 8 4 -13 16 -31 23 -31
12z"/>
<path d="M3325 2950 c-26 -29 -13 -45 13 -17 13 14 19 28 14 31 -5 3 -17 -3
-27 -14z"/>
<path d="M3494 2925 c11 -8 24 -15 30 -15 5 0 1 7 -10 15 -10 8 -23 14 -29 14
-5 0 -1 -6 9 -14z"/>
<path d="M3465 2910 c3 -5 8 -10 11 -10 2 0 4 5 4 10 0 6 -5 10 -11 10 -5 0
-7 -4 -4 -10z"/>
<path d="M3457 2876 c-4 -10 -1 -13 8 -9 8 3 12 9 9 14 -7 12 -11 11 -17 -5z"/>
<path d="M3535 2870 c3 -5 11 -10 16 -10 6 0 7 5 4 10 -3 6 -11 10 -16 10 -6
0 -7 -4 -4 -10z"/>
<path d="M4260 2256 c0 -2 7 -9 15 -16 9 -7 15 -8 15 -2 0 5 -7 12 -15 16 -8
3 -15 4 -15 2z"/>
<path d="M1845 3890 c-3 -5 -1 -10 4 -10 6 0 11 5 11 10 0 6 -2 10 -4 10 -3 0
-8 -4 -11 -10z"/>
<path d="M1788 3833 c7 -3 16 -2 19 1 4 3 -2 6 -13 5 -11 0 -14 -3 -6 -6z"/>
<path d="M5572 3625 c16 -9 29 -27 33 -45 8 -38 16 -41 39 -17 16 17 17 19 3
14 -10 -4 -17 -1 -17 6 0 13 -60 57 -76 57 -5 -1 3 -7 18 -15z"/>
<path d="M2162 3610 c0 -14 2 -19 5 -12 2 6 2 18 0 25 -3 6 -5 1 -5 -13z"/>
<path d="M5722 3512 c17 -39 28 -52 46 -52 8 0 34 -18 58 -40 24 -22 58 -43
74 -47 17 -3 30 -11 30 -18 0 -8 16 -19 36 -25 28 -10 35 -16 31 -32 -8 -30 3
-48 29 -48 14 0 42 -16 64 -37 31 -27 44 -33 52 -25 7 7 20 12 30 12 16 0 17
2 6 14 -7 8 -15 13 -16 11 -7 -6 -42 30 -42 42 0 7 -4 13 -10 13 -14 0 -48 28
-101 83 -25 26 -50 47 -56 47 -6 0 -16 7 -23 15 -21 26 -168 95 -186 88 -11
-4 -15 -3 -11 4 4 6 0 13 -8 16 -12 5 -12 2 -3 -21z"/>
<path d="M2380 3240 c0 -14 7 -20 22 -20 20 0 21 1 3 20 -10 11 -20 20 -22 20
-1 0 -3 -9 -3 -20z"/>
<path d="M6115 2970 c-3 -5 -1 -10 4 -10 6 0 11 5 11 10 0 6 -2 10 -4 10 -3 0
-8 -4 -11 -10z"/>
<path d="M6080 2962 c0 -14 46 -53 53 -45 13 13 7 35 -8 29 -8 -3 -21 2 -30
10 -8 9 -15 11 -15 6z"/>
<path d="M2190 2916 c0 -2 7 -12 16 -20 8 -9 11 -16 5 -16 -6 0 -11 -12 -11
-27 0 -15 -10 -38 -22 -51 l-23 -25 22 5 c13 4 29 -1 42 -13 19 -18 20 -18 23
3 2 12 8 23 15 25 19 7 8 -29 -15 -48 -26 -21 -29 -39 -4 -34 28 5 72 24 72
30 0 4 -4 3 -10 0 -5 -3 -10 1 -10 10 0 11 5 15 14 12 8 -3 22 3 32 14 14 15
15 22 5 32 -9 9 -13 7 -17 -11 -4 -12 -11 -22 -16 -22 -5 0 -6 10 -3 21 5 15
4 19 -4 15 -6 -4 -11 -2 -11 3 0 6 6 11 14 11 8 0 17 4 20 9 3 4 -6 6 -19 3
-20 -3 -24 -1 -19 12 3 9 1 16 -4 16 -6 0 -12 -10 -14 -22 -2 -13 -7 -21 -13
-19 -5 1 -9 7 -8 12 5 17 -17 58 -37 69 -11 6 -20 9 -20 6z"/>
<path d="M6240 2870 c0 -5 5 -10 11 -10 5 0 7 5 4 10 -3 6 -8 10 -11 10 -2 0
-4 -4 -4 -10z"/>
<path d="M6407 2763 c-3 -5 -3 -26 -2 -47 2 -31 8 -42 29 -53 15 -8 36 -11 47
-8 17 6 18 9 7 23 -10 12 -10 14 0 8 6 -4 12 -3 12 2 0 4 -18 18 -40 31 -26
14 -37 27 -33 36 5 15 -12 21 -20 8z"/>
<path d="M1986 2733 c-3 -3 -6 -24 -6 -45 0 -34 3 -38 25 -38 14 0 28 7 32 16
4 11 13 13 33 9 31 -7 82 3 75 14 -2 4 -18 6 -35 3 -17 -2 -30 0 -30 7 0 6 -7
8 -15 4 -9 -3 -23 1 -33 9 -26 22 -38 28 -46 21z"/>
<path d="M6430 2590 c20 -13 33 -13 25 0 -3 6 -14 10 -23 10 -15 0 -15 -2 -2
-10z"/>
<path d="M6610 2505 c0 -8 4 -15 10 -15 5 0 7 7 4 15 -4 8 -8 15 -10 15 -2 0
-4 -7 -4 -15z"/>
<path d="M1940 2474 c0 -25 20 -55 32 -48 6 4 8 3 5 -3 -9 -14 12 -29 41 -31
13 0 30 -9 38 -19 12 -16 13 -16 14 -2 0 9 -7 22 -15 29 -8 7 -15 19 -15 28 0
8 -2 13 -5 10 -3 -3 -19 7 -35 23 -31 32 -60 38 -60 13z m65 -34 c3 -5 2 -10
-4 -10 -5 0 -13 5 -16 10 -3 6 -2 10 4 10 5 0 13 -4 16 -10z"/>
<path d="M1957 1723 c-6 -10 19 -34 26 -26 8 7 -3 33 -13 33 -5 0 -11 -3 -13
-7z"/>
<path d="M2440 1670 c0 -5 5 -10 11 -10 5 0 7 5 4 10 -3 6 -8 10 -11 10 -2 0
-4 -4 -4 -10z"/>
<path d="M2387 1642 c-10 -10 -14 -22 -10 -26 4 -4 1 -12 -7 -17 -12 -8 -11
-9 5 -7 13 2 19 10 17 21 -2 9 4 20 13 23 8 3 15 10 15 15 0 15 -16 10 -33 -9z"/>
<path d="M1530 1556 c0 -2 8 -10 18 -17 15 -13 16 -12 3 4 -13 16 -21 21 -21
13z"/>
<path d="M2280 1505 c7 -9 19 -14 27 -11 8 4 11 1 8 -5 -4 -6 0 -9 10 -7 10 2
20 -4 22 -12 4 -13 3 -13 -6 0 -9 13 -11 13 -11 -1 0 -9 7 -22 15 -29 12 -10
20 -9 41 5 15 10 23 22 20 31 -3 9 -1 12 4 9 6 -3 10 -1 10 4 0 6 -12 11 -26
11 -14 0 -23 4 -19 10 3 6 2 10 -4 10 -5 0 -11 -6 -13 -12 -4 -10 -10 -10 -32
0 -15 6 -34 12 -43 12 -13 0 -13 -3 -3 -15z"/>
<path d="M2220 1500 c0 -5 5 -10 10 -10 6 0 10 5 10 10 0 6 -4 10 -10 10 -5 0
-10 -4 -10 -10z"/>
<path d="M2257 1493 c-3 -5 -2 -15 2 -22 5 -7 11 -9 14 -4 3 5 2 15 -2 22 -5
7 -11 9 -14 4z"/>
<path d="M1590 1486 c0 -2 8 -10 18 -17 15 -13 16 -12 3 4 -13 16 -21 21 -21
13z"/>
<path d="M3029 1475 c-1 -3 -2 -9 -3 -15 0 -5 -10 -16 -21 -24 -11 -9 -14 -16
-8 -16 18 0 65 -78 59 -98 -16 -59 -15 -69 2 -69 9 0 23 7 31 14 9 9 24 12 40
8 23 -5 21 -2 -12 22 -27 19 -37 33 -33 46 2 10 -2 21 -10 24 -21 8 -17 21 12
48 l26 24 -41 21 c-23 11 -42 18 -42 15z"/>
<path d="M3417 1342 c8 -21 23 -32 46 -32 28 0 20 15 -18 33 -32 15 -34 15
-28 -1z"/>
<path d="M3330 1285 c0 -14 -9 -29 -20 -35 -11 -6 -20 -20 -20 -30 0 -12 -7
-20 -16 -20 -14 0 -16 -7 -11 -40 5 -39 4 -40 -25 -40 -24 0 -28 -3 -20 -13
11 -13 5 -57 -8 -67 -4 -3 -10 -14 -14 -25 -5 -17 1 -23 27 -34 17 -7 26 -15
20 -18 -24 -9 -13 -39 22 -57 26 -14 35 -26 36 -45 1 -26 1 -26 10 3 4 17 15
34 24 38 17 10 21 48 5 48 -5 0 -16 15 -23 33 -12 29 -12 33 5 45 10 7 18 23
18 34 0 12 7 29 16 39 13 14 14 26 6 62 -9 45 2 77 27 77 26 0 5 36 -32 55
-26 13 -27 13 -27 -10z"/>
<path d="M5430 1219 c0 -24 4 -29 24 -29 21 0 63 27 54 35 -2 2 -20 8 -40 13
-38 10 -38 10 -38 -19z"/>
<path d="M5381 1101 c-11 -7 -10 -12 5 -29 17 -20 19 -20 36 -6 15 14 15 18 3
30 -16 16 -25 17 -44 5z"/>
<path d="M2444 1045 c26 -20 42 -19 22 0 -8 8 -21 15 -28 15 -8 -1 -6 -6 6
-15z"/>
<path d="M4762 993 c4 -16 2 -20 -8 -16 -8 3 -14 0 -14 -6 0 -6 -11 -11 -24
-11 -24 0 -24 -1 -9 -30 8 -17 12 -38 9 -46 -8 -22 18 -44 52 -44 25 0 33 7
50 40 10 22 22 37 26 35 3 -3 0 3 -8 12 -8 9 -25 17 -38 18 -18 1 -23 8 -23
28 -1 14 -5 30 -9 34 -5 4 -7 -2 -4 -14z"/>
<path d="M4966 985 c-3 -9 0 -15 9 -15 8 0 15 7 15 15 0 8 -4 15 -9 15 -5 0
-11 -7 -15 -15z"/>
<path d="M3186 815 c1 -15 -9 -33 -27 -51 -38 -37 -37 -52 7 -60 26 -5 40 -2
52 10 15 15 15 16 -3 16 -17 0 -16 2 5 13 14 7 25 17 25 22 0 6 4 16 8 23 5 8
3 12 -7 12 -10 0 -13 6 -10 15 4 9 0 15 -7 16 -8 0 -21 2 -30 4 -11 2 -15 -4
-13 -20z"/>
<path d="M4102 798 c-21 -21 -13 -35 28 -51 22 -8 43 -23 47 -33 3 -10 15 -26
25 -36 18 -18 19 -18 25 -1 3 10 13 26 22 36 13 16 13 19 1 27 -8 6 -23 10
-33 10 -10 0 -33 11 -50 24 -47 34 -53 36 -65 24z"/>
<path d="M3928 783 c-22 -6 -22 -11 1 -46 l19 -29 15 22 c12 18 13 26 4 41 -7
11 -14 18 -17 18 -3 -1 -13 -3 -22 -6z"/>
<path d="M825 4350 c-3 -5 -1 -10 4 -10 6 0 11 5 11 10 0 6 -2 10 -4 10 -3 0
-8 -4 -11 -10z"/>
<path d="M7147 439 c4 -13 8 -18 11 -10 2 7 -1 18 -6 23 -8 8 -9 4 -5 -13z"/>
<path d="M7002 398 c-15 -15 -16 -38 -1 -38 5 0 8 4 5 9 -4 5 -1 11 5 13 7 2
10 10 8 16 -3 10 -7 10 -17 0z"/>
<path d="M7170 390 c0 -5 5 -10 11 -10 5 0 7 5 4 10 -3 6 -8 10 -11 10 -2 0
-4 -4 -4 -10z"/>
<path d="M7330 369 c0 -5 5 -7 10 -4 6 3 10 1 10 -5 0 -6 5 -8 11 -4 8 4 7 9
-2 15 -19 12 -29 11 -29 -2z"/>
<path d="M6933 345 c-3 -9 -3 -18 -1 -21 3 -3 8 4 11 16 6 23 -1 27 -10 5z"/>
<path d="M7008 316 c-10 -7 -18 -18 -18 -24 0 -6 -8 -9 -17 -6 -15 5 -16 4 -3
-5 21 -15 28 -14 35 9 3 11 13 20 20 20 8 0 17 5 20 10 9 14 -17 12 -37 -4z"/>
<path d="M7479 313 c-1 -10 -1 -21 -1 -25 1 -3 -5 -12 -13 -18 -22 -18 -18
-30 10 -30 23 0 25 4 25 45 0 42 -19 66 -21 28z"/>
<path d="M7036 268 c2 -29 1 -31 -10 -16 -12 17 -14 17 -36 -2 -27 -24 -38
-26 -20 -5 8 9 9 15 2 15 -6 0 -14 -5 -17 -11 -4 -6 -13 -8 -21 -5 -7 3 -16 1
-19 -4 -4 -6 -15 -10 -26 -10 -10 0 -19 -7 -19 -15 0 -8 -9 -15 -19 -15 -25 0
-34 -15 -33 -51 0 -20 -3 -26 -13 -23 -8 3 -24 -4 -36 -15 -13 -12 -19 -21
-13 -22 5 0 -2 -5 -15 -10 -36 -14 -36 -5 2 38 19 21 32 44 29 52 -3 9 0 11 7
6 7 -4 20 1 30 11 22 24 33 54 21 54 -6 0 -10 -6 -10 -12 0 -10 -3 -9 -9 1
-10 16 -31 6 -31 -14 0 -8 -6 -12 -13 -9 -15 5 -19 -24 -6 -41 7 -9 -50 -78
-96 -115 -17 -14 -18 -13 -12 3 3 9 2 17 -4 17 -6 0 -6 7 1 21 6 11 19 19 28
17 10 -1 27 7 40 20 22 22 31 49 12 37 -5 -3 -10 -1 -10 4 0 6 5 11 10 11 7 0
7 6 0 20 -10 19 -31 28 -29 13 4 -27 -1 -35 -16 -23 -10 9 -15 9 -15 1 0 -6
-7 -11 -16 -11 -21 0 -47 -27 -34 -35 5 -3 10 -12 10 -18 0 -8 -4 -7 -9 2 -7
12 -13 12 -24 3 -13 -11 -27 -7 -27 8 0 4 11 19 26 35 14 15 23 35 21 44 -3
14 -5 13 -12 -4 -5 -11 -19 -31 -31 -45 -13 -14 -32 -36 -43 -48 -13 -16 -25
-21 -33 -16 -7 5 -22 8 -33 7 -11 -2 -14 0 -7 3 6 3 12 12 12 20 0 10 -7 8
-25 -8 -27 -23 -33 -48 -12 -48 6 -1 -7 -10 -30 -21 -22 -11 -43 -29 -46 -39
-4 -17 2 -18 74 -18 60 0 79 4 79 14 0 8 5 14 12 14 9 0 9 3 0 12 -7 7 -12 16
-12 22 0 5 10 -2 21 -15 l22 -24 -6 24 c-6 22 -5 23 12 5 10 -11 17 -26 17
-34 -1 -13 56 -15 446 -17 l447 -3 -9 30 c-5 17 -5 30 0 30 4 0 10 -9 13 -20
3 -11 10 -20 16 -20 7 0 11 36 11 108 0 59 -4 101 -8 94 -5 -7 -15 -10 -23 -7
-18 7 -43 45 -29 45 5 0 7 6 4 13 -3 8 -11 14 -19 14 -20 0 -19 -46 0 -53 10
-4 14 -14 10 -28 -5 -16 -4 -18 4 -6 12 18 26 7 18 -14 -4 -9 -13 -13 -22 -10
-8 4 -15 1 -15 -6 0 -7 -8 -19 -17 -26 -10 -7 -15 -15 -12 -18 3 -3 16 3 29
14 28 24 26 24 26 1 0 -11 -4 -17 -8 -15 -4 3 -12 -10 -17 -28 -5 -18 -10 -26
-10 -16 -1 9 -14 21 -31 27 -16 5 -30 15 -30 20 0 17 40 52 51 45 8 -5 8 27 0
65 -1 2 -10 -4 -20 -13 -11 -10 -31 -19 -45 -20 -16 0 -21 -5 -15 -10 14 -15
11 -26 -9 -26 -19 0 -21 13 -7 57 4 13 11 20 16 17 12 -7 11 7 -1 26 -8 13
-10 12 -10 -2 0 -10 -4 -18 -10 -18 -5 0 -10 11 -10 25 0 22 -3 23 -24 15 -13
-5 -27 -6 -32 -2 -4 4 -4 1 1 -6 4 -8 16 -12 26 -9 11 3 19 1 19 -4 0 -5 -10
-9 -23 -9 -13 0 -28 -5 -34 -11 -9 -9 -10 -6 -6 11 5 20 4 21 -14 11 -26 -14
-38 -41 -17 -41 12 0 12 -4 4 -20 -12 -22 -32 -28 -24 -7 2 7 -5 22 -17 33
-16 14 -23 15 -26 7 -3 -7 -13 -13 -23 -13 -17 0 -18 -6 -13 -50 4 -34 2 -55
-7 -65 -11 -13 -15 -13 -21 -3 -7 10 -9 10 -9 1 0 -7 -5 -13 -11 -13 -6 0 -9
9 -6 20 3 13 1 18 -6 13 -7 -4 -6 1 2 11 12 14 12 19 2 26 -8 4 -10 13 -7 19
4 6 2 11 -5 11 -9 0 -8 4 1 15 6 8 17 13 23 12 8 -1 11 9 9 28 -5 41 -19 53
-16 13z m224 -27 c0 -5 -7 -11 -14 -14 -10 -4 -13 -1 -9 9 6 15 23 19 23 5z
m-140 -51 c-18 -11 -24 -6 -16 16 5 14 9 15 19 5 9 -9 9 -14 -3 -21z m-146 -2
c-5 -8 -2 -9 9 -5 14 5 17 0 17 -28 0 -20 5 -35 12 -35 6 0 8 -3 5 -6 -4 -4
-13 -1 -21 5 -12 10 -16 8 -21 -9 -7 -21 -7 -21 -25 -3 -20 21 -17 31 14 43
15 6 17 9 4 9 -11 1 -15 7 -11 21 3 11 10 20 15 20 5 0 6 -5 2 -12z m366 -68
c4 0 6 -9 3 -20 -8 -31 -20 -15 -20 27 0 21 2 28 4 16 2 -13 8 -23 13 -23z
m-120 -55 c0 -19 -4 -35 -10 -35 -5 0 -8 10 -6 23 3 12 5 28 5 35 2 28 11 9
11 -23z m-435 5 c3 -5 1 -10 -4 -10 -6 0 -11 5 -11 10 0 6 2 10 4 10 3 0 8 -4
11 -10z m195 0 c0 -5 -8 -10 -17 -10 -15 0 -16 2 -3 10 19 12 20 12 20 0z
m-345 -20 c-3 -5 -10 -10 -16 -10 -5 0 -9 5 -9 10 0 6 7 10 16 10 8 0 12 -4 9
-10z m75 0 c0 -5 7 -10 15 -10 8 0 15 -7 15 -16 0 -14 -1 -14 -16 0 -19 20
-29 20 -48 0 -21 -21 -21 -6 1 18 18 20 33 24 33 8z m720 -19 c0 -15 -17 -22
-36 -14 -16 6 -16 7 2 14 27 11 34 10 34 0z"/>
<path d="M4785 269 c-4 -6 -5 -12 -2 -15 2 -3 7 2 10 11 7 17 1 20 -8 4z"/>
<path d="M7085 250 c3 -5 8 -10 11 -10 2 0 4 5 4 10 0 6 -5 10 -11 10 -5 0 -7
-4 -4 -10z"/>
<path d="M6868 243 c7 -3 16 -2 19 1 4 3 -2 6 -13 5 -11 0 -14 -3 -6 -6z"/>
<path d="M4893 194 c0 -8 4 -14 9 -14 4 0 8 -7 8 -16 0 -8 4 -13 9 -10 5 4 11
0 14 -6 2 -7 8 -10 13 -5 4 4 -2 14 -14 23 -12 8 -20 19 -17 24 3 4 -1 10 -8
13 -8 3 -14 -1 -14 -9z"/>
<path d="M4761 184 c0 -11 3 -14 6 -6 3 7 2 16 -1 19 -3 4 -6 -2 -5 -13z"/>
<path d="M6506 183 c-6 -14 -5 -15 5 -6 7 7 10 15 7 18 -3 3 -9 -2 -12 -12z"/>
<path d="M7052 175 c0 -16 2 -22 5 -12 2 9 2 23 0 30 -3 6 -5 -1 -5 -18z"/>
<path d="M4700 170 c-9 -6 -10 -10 -3 -10 6 0 15 5 18 10 8 12 4 12 -15 0z"/>
<path d="M6387 146 c-10 -14 -14 -26 -10 -27 5 -1 -3 -4 -17 -8 -14 -4 -30 -4
-37 1 -7 6 -14 4 -19 -3 -4 -8 -3 -9 4 -5 27 16 10 -24 -18 -44 -31 -22 -38
-44 -19 -55 10 -7 46 33 42 47 -2 4 3 5 11 2 8 -3 17 -1 20 5 4 6 14 7 22 4
13 -5 15 -1 10 15 -6 18 -4 21 10 15 13 -5 15 -3 9 7 -5 8 -2 17 7 24 9 7 12
18 8 30 -6 17 -8 16 -23 -8z"/>
<path d="M4891 134 c0 -11 3 -14 6 -6 3 7 2 16 -1 19 -3 4 -6 -2 -5 -13z"/>
<path d="M6247 113 c-11 -10 -8 -41 4 -48 6 -4 17 1 24 11 14 19 21 43 8 31
-3 -4 -11 -2 -18 3 -7 5 -15 7 -18 3z"/>
<path d="M4887 103 c-3 -5 -1 -17 4 -28 6 -17 7 -16 6 8 -1 28 -3 32 -10 20z"/>
<path d="M4970 89 c0 -5 5 -7 10 -4 6 3 10 8 10 11 0 2 -4 4 -10 4 -5 0 -10
-5 -10 -11z"/>
<path d="M6670 89 c0 -5 5 -7 10 -4 6 3 10 8 10 11 0 2 -4 4 -10 4 -5 0 -10
-5 -10 -11z"/>
<path d="M6141 74 c0 -11 3 -14 6 -6 3 7 2 16 -1 19 -3 4 -6 -2 -5 -13z"/>
<path d="M6165 80 c3 -5 11 -10 16 -10 6 0 7 5 4 10 -3 6 -11 10 -16 10 -6 0
-7 -4 -4 -10z"/>
<path d="M6205 51 c-3 -5 -1 -12 5 -16 5 -3 10 1 10 9 0 18 -6 21 -15 7z"/>
<path d="M6130 20 c0 -11 6 -20 14 -20 21 0 31 21 15 31 -22 14 -29 11 -29
-11z"/>
<path d="M6036 21 c-4 -7 -5 -15 -2 -18 9 -9 19 4 14 18 -4 11 -6 11 -12 0z"/>
<path d="M6068 23 c7 -3 16 -2 19 1 4 3 -2 6 -13 5 -11 0 -14 -3 -6 -6z"/>
<path d="M6235 21 c-3 -5 -1 -12 5 -16 5 -3 10 1 10 9 0 18 -6 21 -15 7z"/>
<path d="M6315 10 c-3 -5 -1 -10 4 -10 6 0 11 5 11 10 0 6 -2 10 -4 10 -3 0
-8 -4 -11 -10z"/>
<path d="M6088 3 c7 -3 16 -2 19 1 4 3 -2 6 -13 5 -11 0 -14 -3 -6 -6z"/>
</g>
</svg>
